<?xml version="1.0" encoding="utf-8"?>
<!-- Generator: Adobe Illustrator 17.0.0, SVG Export Plug-In . SVG Version: 6.00 Build 0)  -->
<!DOCTYPE svg PUBLIC "-//W3C//DTD SVG 1.1//EN" "http://www.w3.org/Graphics/SVG/1.1/DTD/svg11.dtd">
<svg version="1.1" id="Capa_1" xmlns="http://www.w3.org/2000/svg" xmlns:xlink="http://www.w3.org/1999/xlink" x="0px" y="0px"
	 width="688.572px" height="528.441px" viewBox="0 221.363 688.572 528.441" enable-background="new 0 221.363 688.572 528.441"
	 xml:space="preserve">
<g>
	<path fill="#2AB354" d="M607.308,565.227c-3.729-0.459-7.524-0.699-11.374-0.699c-51.079,0-92.638,41.555-92.638,92.638
		c0,4.604,0.343,9.129,0.994,13.554c6.579,44.68,45.168,79.084,91.644,79.084c51.079,0,92.638-41.555,92.638-92.638
		C688.572,609.934,653.041,570.852,607.308,565.227z M640.471,664.292h-37.412v39.193c0,3.933-3.192,7.126-7.126,7.126
		s-7.126-3.193-7.126-7.126v-39.193h-37.412c-3.933,0-7.126-3.192-7.126-7.126s3.193-7.126,7.126-7.126h37.412v-35.63
		c0-3.934,3.192-7.126,7.126-7.126s7.126,3.192,7.126,7.126v35.63h37.412c3.933,0,7.126,3.193,7.126,7.126
		C647.597,661.1,644.405,664.292,640.471,664.292z"/>
	<path fill="#334468" d="M486.399,638.296H48.793C31.814,638.296,18,624.483,18,607.503V270.156
		c0-16.979,13.814-30.793,30.793-30.793H547.14c16.979,0,30.793,13.814,30.793,30.793v277.331c5.86-0.954,11.871-1.459,18-1.459
		V270.156c0-26.948-21.845-48.793-48.793-48.793H48.793C21.846,221.363,0,243.208,0,270.156v337.347
		c0,26.948,21.846,48.793,48.793,48.793h436.014C484.854,650.165,485.397,644.153,486.399,638.296z"/>
	<g>
		<path fill="#334468" d="M343.607,349.013h-45.64c-9.632,0-17.44,7.809-17.44,17.44v115.073c0,9.632,7.808,17.44,17.44,17.44
			s17.44-7.809,17.44-17.44v-33.06h28.2c27.419,0,49.727-22.308,49.727-49.727S371.026,349.013,343.607,349.013z M343.607,413.585
			h-28.2v-29.692h28.199c8.186,0,14.847,6.66,14.847,14.846S351.793,413.586,343.607,413.585z"/>
		<path fill="#334468" d="M200.002,349.015c-31.1,0-56.403,25.302-56.403,56.403h0.001v76.109c0,9.632,7.809,17.44,17.44,17.44
			s17.44-7.809,17.44-17.44v-33.06h43.045v33.06c0,9.632,7.808,17.44,17.44,17.44s17.44-7.809,17.44-17.44h0v-76.109
			C256.405,374.317,231.102,349.015,200.002,349.015z M221.525,413.587h-43.046v-8.169c0-11.868,9.656-21.523,21.523-21.523
			c11.868,0,21.524,9.654,21.523,21.523V413.587z"/>
		<path fill="#334468" d="M434.894,349.013c-9.632,0-17.44,7.809-17.44,17.44v115.072c0,9.632,7.808,17.44,17.44,17.44
			s17.44-7.808,17.44-17.44V366.453C452.334,356.821,444.525,349.013,434.894,349.013z"/>
	</g>
</g>
</svg>
