<?xml version="1.0" encoding="utf-8"?>
<!-- Generator: Adobe Illustrator 22.1.0, SVG Export Plug-In . SVG Version: 6.00 Build 0)  -->
<svg version="1.1" id="Shape_677_1_" xmlns="http://www.w3.org/2000/svg" xmlns:xlink="http://www.w3.org/1999/xlink" x="0px"
	 y="0px" viewBox="0 0 59 53" style="enable-background:new 0 0 59 53;" xml:space="preserve">
<style type="text/css">
	.st0{fill-rule:evenodd;clip-rule:evenodd;fill:#333333;}
</style>
<g id="Shape_677">
	<g>
		<path class="st0" d="M57.5,0h-56C0.7,0,0,0.7,0,1.5v39.7c0,0.8,0.7,1.5,1.5,1.5H28V50H17.5c-0.8,0-1.5,0.7-1.5,1.5
			c0,0.8,0.7,1.5,1.5,1.5h24c0.8,0,1.5-0.7,1.5-1.5c0-0.8-0.7-1.5-1.5-1.5H31v-7.4h26.5c0.8,0,1.5-0.7,1.5-1.5V1.5
			C59,0.7,58.3,0,57.5,0z M56.1,39.7L56.1,39.7H3V3h53.1V39.7z M12.9,30.4H20c2.1,0,3.8-0.6,5.1-1.7c1.1-1,1.7-2.3,1.7-3.8
			c0-1.4-0.4-2.5-1.2-3.4c-0.7-0.8-1.7-1.3-3-1.5c2-0.8,3-2.2,3-4.2c0-1.4-0.5-2.6-1.6-3.5c-1.1-0.9-2.5-1.3-4.3-1.3h-6.8
			c-0.9,0-1.4,0.5-1.4,1.4V29C11.5,29.9,11.9,30.4,12.9,30.4z M14.3,13.6h5.5c2,0,3,0.9,3,2.7c0,0.8-0.3,1.4-0.8,1.9
			c-0.5,0.6-1.3,0.9-2.2,0.9h-5.5V13.6z M14.3,21.5h5.9c2.5,0,3.8,1.1,3.8,3.2c0,2.2-1.3,3.3-3.8,3.3h-5.9V21.5z M32.2,30.6
			c0.9,0,1.4-0.5,1.4-1.4v-4.8l4.1-4l6,9.5c0.3,0.4,0.7,0.6,1.2,0.6c0.8,0,1.3-0.4,1.3-1.3c0-0.3-0.1-0.5-0.2-0.8l-6.3-10l5.6-5.5
			c0.3-0.3,0.4-0.6,0.4-1c0-0.9-0.5-1.3-1.4-1.3c-0.3,0-0.7,0.1-0.9,0.4l-9.8,9.5v-8.5c0-0.9-0.5-1.4-1.4-1.4
			c-0.9,0-1.4,0.5-1.4,1.4v17C30.8,30.2,31.3,30.6,32.2,30.6z"/>
	</g>
</g>
</svg>
