<svg height="512pt" viewBox="0 -48 512 512" width="512pt" xmlns="http://www.w3.org/2000/svg"><path d="m376.601562 71.207031h-224.65625v-48.140625c0-8.863281 7.183594-16.046875 16.046876-16.046875h192.5625c8.863281 0 16.046874 7.183594 16.046874 16.046875zm0 0" fill="#adc4d9"/><path d="m151.945312 344.007812h224.65625v48.140626c0 8.863281-7.183593 16.046874-16.046874 16.046874h-192.5625c-8.863282 0-16.046876-7.183593-16.046876-16.046874zm0 0" fill="#adc4d9"/><path d="m151.945312 71.207031h224.65625v272.800781h-224.65625zm0 0" fill="#74e0e3"/><path d="m176.015625 408.195312v-64.1875h-24.070313v48.140626c0 8.867187 7.179688 16.046874 16.046876 16.046874zm0 0" fill="#8ca4b8"/><path d="m176.015625 7.019531v64.1875h-24.070313v-48.140625c0-8.863281 7.179688-16.046875 16.046876-16.046875zm0 0" fill="#8ca4b8"/><path d="m151.945312 71.207031h24.070313v272.800781h-24.070313zm0 0" fill="#00c9d4"/><path d="m224.15625 304.390625h16.046875v15.046875h-16.046875zm0 0" fill="#fff"/><path d="m256.25 304.390625h16.046875v15.046875h-16.046875zm0 0" fill="#fff"/><path d="m288.34375 304.390625h16.046875v15.046875h-16.046875zm0 0" fill="#fff"/><g fill="#adc4d9"><path d="m119.851562 159.46875c0 8.859375-7.183593 16.046875-16.046874 16.046875-8.863282 0-16.046876-7.1875-16.046876-16.046875 0-8.863281 7.183594-16.046875 16.046876-16.046875 8.863281 0 16.046874 7.183594 16.046874 16.046875zm0 0"/><path d="m119.851562 255.75c0 8.863281-7.183593 16.046875-16.046874 16.046875-8.863282 0-16.046876-7.183594-16.046876-16.046875s7.183594-16.046875 16.046876-16.046875c8.863281 0 16.046874 7.183594 16.046874 16.046875zm0 0"/><path d="m39.617188 207.609375c0 8.863281-7.1875 16.046875-16.046876 16.046875-8.863281 0-16.046874-7.183594-16.046874-16.046875s7.183593-16.046875 16.046874-16.046875c8.859376 0 16.046876 7.183594 16.046876 16.046875zm0 0"/></g><path d="m392.648438 167.492188v32.09375l8.027343 16.046874h-40.121093v-48.140624" fill="#ff6242"/><path d="m472.886719 183.539062-56.164063-16.046874h-72.214844v-64.191407h72.214844l56.164063-16.046875zm0 0" fill="#ff866e"/><path d="m416.722656 103.300781 56.164063-16.046875v96.285156l-56.164063-16.046874" fill="#fff"/><path d="m472.886719 71.207031h32.09375v128.378907h-32.09375zm0 0" fill="#ff866e"/><path d="m472.886719 183.539062h32.09375v16.046876h-32.09375zm0 0" fill="#ff6242"/><path d="m472.886719 71.207031h32.09375v16.046875h-32.09375zm0 0" fill="#ff6242"/><path d="m184.039062 96.28125h72.210938v15.042969h-72.210938zm0 0"/><path d="m184.039062 128.375h40.117188v15.046875h-40.117188zm0 0"/><path d="m232.179688 369.082031h64.1875v15.042969h-64.1875zm0 0"/><path d="m368.578125 336.988281h-209.613281v-257.757812h224.660156v-56.164063c0-12.996094-10.074219-23.066406-23.070312-23.066406h-192.5625c-12.996094 0-24.070313 10.070312-24.070313 23.066406v369.082032c0 12.996093 11.074219 24.070312 24.070313 24.070312h192.5625c12.996093 0 23.070312-11.074219 23.070312-24.070312v-152.445313h-15.046875zm-209.613281-313.921875c0-4.699218 4.328125-8.023437 9.027344-8.023437h192.5625c4.703124 0 8.023437 3.324219 8.023437 8.023437v41.121094h-209.613281zm209.613281 369.082032c0 4.699218-3.320313 9.027343-8.023437 9.027343h-192.5625c-4.699219 0-9.027344-4.328125-9.027344-9.027343v-40.117188h209.613281zm0 0"/><path d="m288.34375 191.5625v-15.046875h-17.050781v-9.023437h-15.042969v9.023437h-16.046875v39.117187h32.09375v9.023438h-32.09375v15.046875h16.046875v8.023437h15.042969v-8.023437h16.050781v-39.117187h-32.097656v-9.023438zm0 0"/><path d="m103.804688 183.035156c12.996093 0 23.570312-10.570312 23.570312-23.566406s-10.574219-23.570312-23.570312-23.570312c-12.996094 0-23.570313 10.574218-23.570313 23.570312 0 2.386719.359375 4.695312 1.027344 6.871094l-44.085938 22.042968c-3.847656-2.730468-8.539062-4.34375-13.605469-4.34375-12.996093 0-23.570312 10.574219-23.570312 23.570313s10.574219 23.566406 23.570312 23.566406c5.066407 0 9.757813-1.609375 13.605469-4.34375l44.085938 22.042969c-.667969 2.175781-1.027344 4.484375-1.027344 6.875 0 12.996094 10.574219 23.566406 23.570313 23.566406 12.996093 0 23.570312-10.570312 23.570312-23.566406s-10.574219-23.570312-23.570312-23.570312c-5.066407 0-9.761719 1.613281-13.609376 4.34375l-44.082031-22.042969c.664063-2.175781 1.023438-4.480469 1.023438-6.871094s-.359375-4.699219-1.023438-6.875l44.082031-22.042969c3.847657 2.730469 8.542969 4.34375 13.609376 4.34375zm0-32.09375c4.699218 0 8.523437 3.824219 8.523437 8.527344 0 4.699219-3.824219 8.523438-8.523437 8.523438-4.703126 0-8.527344-3.824219-8.527344-8.523438 0-4.703125 3.824218-8.527344 8.527344-8.527344zm-80.234376 65.191406c-4.703124 0-8.527343-3.824218-8.527343-8.523437s3.824219-8.527344 8.527343-8.527344c4.699219 0 8.523438 3.828125 8.523438 8.527344s-3.824219 8.523437-8.523438 8.523437zm80.234376 31.089844c4.699218 0 8.523437 3.828125 8.523437 8.527344s-3.824219 8.523438-8.523437 8.523438c-4.703126 0-8.527344-3.824219-8.527344-8.523438s3.824218-8.527344 8.527344-8.527344zm0 0"/><path d="m464.863281 64.1875v17.394531l-49.195312 14.699219h-79.183594v79.234375h16.046875v48.140625h60.3125l-13.171875-25.847656v-22.292969h15.996094l49.195312 13.695313v18.398437h47.136719v-143.421875zm-97.285156 144.421875v-33.09375h17.046875v25.84375l3.878906 7.25zm41.121094-48.140625h-57.167969v-49.144531h57.167969zm56.164062 13.097656-41.121093-11.75v-52.839844l41.121093-11.746093zm32.09375 18.996094h-17.050781v-113.332031h17.050781zm0 0"/></svg>