<svg height="395pt" viewBox="0 -20 395.85792 395" width="395pt" xmlns="http://www.w3.org/2000/svg"><path d="m348.160156 151.484375v-92.507813c0-10.828124 10.441406-19.605468 21.265625-19.605468 10.828125 0 19.605469 8.777344 19.605469 19.605468v144.828126l-75.007812 98.027343v47.433594h-81.917969v-94.867187l62.0625-56.917969 24.46875-37.816407c5.875-9.074218 17.628906-12.285156 27.296875-7.449218 11.226562 5.609375 15.152344 19.6875 8.449218 30.296875l-25.429687 40.265625-44.269531 47.433594" fill="#eac583"/><path d="m314.023438 356.089844h-81.917969c-3.769531 0-6.828125-3.054688-6.828125-6.824219v-94.863281c0-1.914063.804687-3.738282 2.214844-5.03125l61.417968-56.328125 24-37.089844c6.265625-9.695313 17.5625-14.320313 28.421875-12.382813v-84.597656c0-14.078125 13.128907-26.429687 28.097657-26.429687 14.570312 0 26.429687 11.859375 26.429687 26.429687v144.832032c0 1.5-.496094 2.953124-1.40625 4.148437l-73.601563 96.191406v45.121094c0 3.769531-3.054687 6.824219-6.828124 6.824219zm-75.09375-13.652344h68.269531v-40.605469c0-1.5.492187-2.957031 1.40625-4.152343l73.597656-96.1875v-142.519532c0-7.046875-5.726563-12.773437-12.773437-12.773437-7.5625 0-14.445313 6.089843-14.445313 12.773437v91.183594c4.03125 3.554688 7 8.230469 8.472656 13.496094 2.121094 7.617187.917969 15.820312-3.300781 22.507812l-25.429688 40.265625c-.230468.359375-.492187.699219-.785156 1.011719l-44.269531 47.433594c-2.574219 2.757812-6.898437 2.90625-9.644531.332031-2.757813-2.574219-2.90625-6.890625-.332032-9.648437l43.828126-46.960938 25.085937-39.722656c2.199219-3.480469 2.800781-7.582032 1.695313-11.550782-1.105469-3.960937-3.742188-7.15625-7.421876-8.996093-6.578124-3.289063-14.527343-1.121094-18.511718 5.046875l-24.472656 37.820312c-.3125.484375-.6875.929688-1.117188 1.320313l-59.847656 54.894531v85.03125zm0 0"/><path d="m47.785156 151.484375v-92.507813c0-16.71875-13.605468-19.605468-24.429687-19.605468-9.703125 2.886718-16.53125 8.777344-16.53125 19.605468v144.828126l75.09375 98.027343v47.433594h81.921875v-94.867187l-65.226563-56.917969-24.46875-37.816407c-5.871093-9.074218-17.628906-12.285156-27.296875-7.449218-11.222656 5.609375-15.148437 19.6875-8.449218 30.296875l25.429687 40.265625 44.273437 47.433594" fill="#eac583"/><path d="m163.839844 356.089844h-81.921875c-3.769531 0-6.828125-3.054688-6.828125-6.824219v-45.121094l-73.683594-96.191406c-.914062-1.1875-1.40625-2.648437-1.40625-4.148437v-144.832032c0-12.753906 7.601562-22.039062 21.410156-26.144531.632813-.1875 1.285156-.285156 1.949219-.285156 28.207031 0 31.253906 18.484375 31.253906 26.429687v84.21875c9.875-.59375 19.601563 4.015625 25.265625 12.761719l23.949219 37.015625 64.503906 56.289062c1.480469 1.296876 2.335938 3.167969 2.335938 5.144532v94.863281c-.003907 3.769531-3.058594 6.824219-6.828125 6.824219zm-75.09375-13.652344h68.265625v-84.933594l-62.886719-54.878906c-.476562-.417969-.898438-.898438-1.242188-1.433594l-24.46875-37.820312c-3.988281-6.160156-11.949218-8.34375-18.515624-5.050782-3.679688 1.839844-6.316407 5.039063-7.421876 9-1.105468 3.964844-.507812 8.066407 1.691407 11.546876l25.085937 39.71875 43.835938 46.96875c2.574218 2.753906 2.421875 7.074218-.332032 9.644531-2.746093 2.578125-7.074218 2.433593-9.648437-.332031l-44.273437-47.433594c-.292969-.308594-.550782-.648438-.78125-1.007813l-25.429688-40.265625c-4.222656-6.6875-5.425781-14.890625-3.300781-22.507812 1.828125-6.558594 5.996093-12.210938 11.632812-15.914063v-88.765625c0-6.488281-2.035156-12.5-16.589843-12.765625-9.476563 3.121094-10.71875 8.4375-10.71875 12.765625v142.519532l73.6875 96.1875c.914062 1.191406 1.40625 2.652343 1.40625 4.152343v40.605469zm0 0"/><path d="m253.058594 7.75c-56.917969-6.328125-60.082032 50.59375-60.082032 50.59375s-3.160156-56.917969-60.082031-50.59375c-56.917969 6.320312-44.269531 66.40625-44.269531 66.40625s6.324219 60.082031 104.351562 101.1875c98.027344-41.105469 104.355469-101.1875 104.355469-101.1875s12.644531-60.082031-44.273437-66.40625zm0 0" fill="#ee5281"/><path d="m192.980469 182.171875c-.898438 0-1.796875-.175781-2.640625-.53125-97.734375-40.984375-107.714844-100.636719-108.460938-106.40625-.6875-3.53125-5.5625-31.785156 9.644532-52.800781 8.847656-12.234375 22.515624-19.457032 40.617187-21.46875 18.753906-2.082032 34.289063 1.933594 46.121094 11.949218 6.84375 5.792969 11.519531 12.839844 14.714843 19.628907 3.195313-6.789063 7.875-13.835938 14.714844-19.628907 11.835938-10.019531 27.363282-14.035156 46.117188-11.949218 18.105468 2.011718 31.769531 9.234375 40.621094 21.46875 15.207031 21.015625 10.332031 49.269531 9.644531 52.800781-.746094 5.769531-10.726563 65.421875-108.457031 106.40625-.84375.355469-1.742188.53125-2.636719.53125zm-51.589844-168.085937c-2.488281 0-5.070313.148437-7.742187.445312-14.113282 1.570312-24.566407 6.921875-31.066407 15.90625-12.394531 17.128906-7.328125 42.058594-7.277343 42.308594.046874.230468.085937.460937.109374.695312.058594.519532 7.511719 55.726563 97.5625 94.484375 90.046876-38.757812 97.5-93.96875 97.566407-94.527343.15625-.886719 5.148437-26.003907-7.214844-43.023438-6.503906-8.949219-16.941406-14.277344-31.023437-15.847656-14.902344-1.65625-26.941407 1.3125-35.796876 8.804687-15.300781 12.953125-16.703124 35.167969-16.714843 35.390625-.199219 3.617188-3.195313 6.445313-6.816407 6.445313-3.625 0-6.617187-2.828125-6.816406-6.445313-.015625-.210937-1.542968-22.613281-16.792968-35.453125-7.253907-6.105469-16.644532-9.183593-27.976563-9.183593zm0 0"/><path d="m266.238281 66.152344c-3.769531 0-6.828125-3.058594-6.828125-6.828125 0-9.410157-7.65625-17.066407-17.066406-17.066407-3.769531 0-6.824219-3.058593-6.824219-6.828124 0-3.769532 3.054688-6.824219 6.824219-6.824219 16.941406 0 30.722656 13.777343 30.722656 30.71875 0 3.769531-3.058594 6.828125-6.828125 6.828125zm0 0" fill="#fff"/></svg>