<svg height="480pt" viewBox="0 -48 480 480" width="480pt" xmlns="http://www.w3.org/2000/svg"><path d="m472 247.398438c0 53.019531-42.980469 96-96 96s-96-42.980469-96-96c0-53.019532 42.980469-96 96-96s96 42.980468 96 96zm0 0" fill="#f4b12a"/><path d="m456 119.398438h16v32h-16zm0 0" fill="#d6d7d8"/><path d="m272 367.398438h208v16h-208zm0 0" fill="#f4c167"/><path d="m424 79.398438h16v48h-16zm0 0" fill="#d6d7d8"/><path d="m393.601562 98.601562-116-87.203124c-3.203124-2.398438-8-4-12-3.199219l-177.601562 31.199219h-80v128h80l92.800781 38.402343c1.597657.800781 4 1.597657 6.398438 1.597657h116.800781c8.800781 0 16-7.199219 16-16v-24c0-8.796876-7.199219-16-16-16h-41.601562c-8.796876 0-16-7.199219-16-16 0-1.597657 0-3.199219.800781-4.796876l4.800781-13.601562c2.398438-8 10.398438-12 18.398438-10.398438l65.601562 12.796876h64v-8c0-4.796876-2.398438-9.597657-6.398438-12.796876zm0 0" fill="#efccbf"/><path d="m408 223.398438v-8c0-13.597657-10.398438-24-24-24v-16h-16v16c-13.601562 0-24 10.402343-24 24v16c0 13.601562 10.398438 24 24 24h16c4.800781 0 8 3.203124 8 8v16c0 4.800781-3.199219 8-8 8h-16c-4.800781 0-8-3.199219-8-8v-8h-16v8c0 13.601562 10.398438 24 24 24v16h16v-16c13.601562 0 24-10.398438 24-24v-16c0-13.597657-10.398438-24-24-24h-16c-4.800781 0-8-3.199219-8-8v-16c0-4.796876 3.199219-8 8-8h16c4.800781 0 8 3.203124 8 8v8zm0 0" fill="#d38d1c"/><path d="m8 39.398438h80v128h-80zm0 0" fill="#d8b4ad"/><path d="m40 71.398438h16v48h-16zm0 0" fill="#efccbf"/><path d="m456 119.398438h16v32h-16zm0 0"/><path d="m272 367.398438h208v16h-208zm0 0"/><path d="m424 79.398438h16v48h-16zm0 0"/><path d="m328 191.398438v-24c0-13.597657-10.398438-24-24-24h-41.601562c-4.796876 0-8-3.199219-8-8 0-.796876 0-1.597657.800781-2.398438l4.800781-13.601562c1.601562-4 4.800781-6.398438 8.800781-5.597657l66.398438 13.597657h73.601562v-16c0-7.199219-3.199219-14.398438-9.601562-19.199219l-116.800781-87.199219c-5.597657-4-12-5.601562-18.398438-4.800781l-176.800781 31.199219h-87.199219v144h86.398438l91.203124 38.402343c3.199219 1.597657 6.398438 1.597657 9.597657 1.597657h116.800781c13.601562 0 24-10.398438 24-24zm-312-144h64v112h-64zm168 151.203124-88-36.800781v-116l170.398438-29.601562c2.402343 0 4.800781 0 6.402343 1.601562l116 87.199219c2.398438 1.601562 3.199219 4 3.199219 6.398438h-55.199219l-65.601562-12.796876c-12-2.402343-24 4.796876-27.199219 16l-4.800781 13.597657c-4 12.800781 2.402343 26.402343 15.199219 30.402343 2.402343.796876 4.800781 1.597657 7.203124 1.597657h42.398438c4.800781 0 8 3.199219 8 8v24c0 4.800781-3.199219 8-8 8h-116.800781c-.800781-.800781-2.398438-.800781-3.199219-1.597657zm0 0"/><path d="m40 71.398438h16v48h-16zm0 0"/><path d="m376 159.398438c48.800781 0 88 39.203124 88 88 0 48.800781-39.199219 88-88 88s-88-39.199219-88-88h-16c0 57.601562 46.398438 104 104 104s104-46.398438 104-104c0-57.597657-46.398438-104-104-104zm0 0"/><path d="m344 271.398438v8c0 13.601562 10.398438 24 24 24v16h16v-16c13.601562 0 24-10.398438 24-24v-16c0-13.597657-10.398438-24-24-24h-16c-4.800781 0-8-3.199219-8-8v-16c0-4.796876 3.199219-8 8-8h16c4.800781 0 8 3.203124 8 8v8h16v-8c0-13.597657-10.398438-24-24-24v-16h-16v16c-13.601562 0-24 10.402343-24 24v16c0 13.601562 10.398438 24 24 24h16c4.800781 0 8 3.203124 8 8v16c0 4.800781-3.199219 8-8 8h-16c-4.800781 0-8-3.199219-8-8v-8zm0 0"/></svg>