<?xml version="1.0" encoding="utf-8"?>
<!-- Generator: Adobe Illustrator 22.1.0, SVG Export Plug-In . SVG Version: 6.00 Build 0)  -->
<svg version="1.1" id="Shape_668_1_" xmlns="http://www.w3.org/2000/svg" xmlns:xlink="http://www.w3.org/1999/xlink" x="0px"
	 y="0px" viewBox="0 0 51 59" style="enable-background:new 0 0 51 59;" xml:space="preserve">
<style type="text/css">
	.st0{fill-rule:evenodd;clip-rule:evenodd;fill:#333333;}
</style>
<g id="Shape_668">
	<g>
		<path class="st0" d="M27.5,37h-3.4c-1.2,0-2.2-1-2.2-2.2s1-2.2,2.2-2.2h6c0.8,0,1.5-0.7,1.5-1.5s-0.7-1.5-1.5-1.5h-2.8v-2
			c0-0.8-0.7-1.5-1.5-1.5c-0.8,0-1.5,0.7-1.5,1.5v2h-0.2c-2.9,0-5.2,2.3-5.2,5.2c0,2.8,2.3,5.2,5.2,5.2h3.4c1.2,0,2.2,1,2.2,2.2
			c0,1.2-1,2.2-2.2,2.2h-6.1c-0.8,0-1.5,0.7-1.5,1.5c0,0.8,0.7,1.5,1.5,1.5h2.9v2.1c0,0.8,0.7,1.5,1.5,1.5c0.8,0,1.5-0.7,1.5-1.5
			v-2.1h0.3c2.8,0,5.1-2.3,5.1-5.2C32.7,39.3,30.4,37,27.5,37z M48.1,33.7c-1.6-3.6-3.7-7-6.4-10.2c-3.3-3.9-6.6-6.5-8.2-7.8
			l6.3-11.6c0.3-0.6,0.2-1.3-0.3-1.7C37.8,0.8,36.1,0,34.2,0c-1.8,0-3.4,0.7-4.8,1.3c-1.1,0.5-2.2,0.9-3,0.9c-0.3,0-0.5,0-0.7-0.1
			c-2.9-1.1-5.2-1.7-7.4-1.7c-2.8,0-5.1,1.1-7.4,3.5c-0.5,0.5-0.6,1.3-0.2,1.8l6.8,10.2c-1.7,1.2-4.9,3.8-8.1,7.7
			c-2.7,3.2-4.9,6.7-6.4,10.2C1,38.2,0,42.8,0,47.6C0,53.9,5.2,59,11.5,59h28C45.8,59,51,53.9,51,47.6C51,42.8,50,38.2,48.1,33.7z
			 M13.8,5c1.4-1.2,2.8-1.8,4.4-1.8c1.8,0,3.7,0.6,6.4,1.6c0.5,0.2,1.1,0.3,1.7,0.3c1.4,0,2.8-0.6,4.1-1.1c1.3-0.5,2.5-1,3.7-1
			c0.6,0,1.4,0.1,2.4,0.8l-5.9,10.9H20.3L13.8,5z M39.5,56h-28C6.8,56,3,52.2,3,47.6c0-7.9,2.9-15.3,8.6-22.2c3.6-4.3,7.3-7,8.4-7.8
			H31c1.1,0.8,4.8,3.5,8.4,7.8c5.7,6.8,8.6,14.3,8.6,22.2C48,52.2,44.2,56,39.5,56z"/>
	</g>
</g>
</svg>
