<?xml version="1.0" encoding="utf-8"?>
<!-- Generator: Adobe Illustrator 17.0.0, SVG Export Plug-In . SVG Version: 6.00 Build 0)  -->
<!DOCTYPE svg PUBLIC "-//W3C//DTD SVG 1.1//EN" "http://www.w3.org/Graphics/SVG/1.1/DTD/svg11.dtd">
<svg version="1.1" id="Capa_1" xmlns="http://www.w3.org/2000/svg" xmlns:xlink="http://www.w3.org/1999/xlink" x="0px" y="0px"
	 width="688.572px" height="528.441px" viewBox="0 227.424 688.572 528.441" enable-background="new 0 227.424 688.572 528.441"
	 xml:space="preserve">
<g>
	<path fill="#2AB354" d="M607.307,571.288c-3.729-0.459-7.524-0.699-11.374-0.699c-51.079,0-92.638,41.555-92.638,92.638
		c0,4.604,0.343,9.129,0.994,13.554c6.579,44.68,45.168,79.084,91.644,79.084c51.079,0,92.638-41.555,92.638-92.638
		C688.571,615.995,653.04,576.913,607.307,571.288z M640.47,670.353h-37.412v39.193c0,3.933-3.192,7.126-7.126,7.126
		s-7.126-3.193-7.126-7.126v-39.193h-37.412c-3.933,0-7.126-3.192-7.126-7.126s3.193-7.126,7.126-7.126h37.412v-35.63
		c0-3.934,3.192-7.126,7.126-7.126s7.126,3.192,7.126,7.126v35.63h37.412c3.933,0,7.126,3.193,7.126,7.126
		C647.596,667.161,644.404,670.353,640.47,670.353z"/>
	<path fill="#334468" d="M486.399,644.357H48.793C31.814,644.357,18,630.543,18,613.564V276.217
		c0-16.979,13.814-30.793,30.793-30.793H547.14c16.979,0,30.793,13.814,30.793,30.793v277.331c5.86-0.954,11.871-1.459,18-1.459
		V276.217c0-26.948-21.845-48.793-48.793-48.793H48.793C21.846,227.424,0,249.269,0,276.217v337.347
		c0,26.948,21.846,48.793,48.793,48.793h436.014C484.854,656.226,485.397,650.214,486.399,644.357z"/>
	<g>
		<path fill="#334468" d="M517.015,449.44H78.919c-3.866,0-7,3.134-7,7s3.134,7,7,7h438.096c3.866,0,7-3.134,7-7
			S520.881,449.44,517.015,449.44z"/>
		<path fill="#334468" d="M517.015,386.764H78.919c-3.866,0-7,3.134-7,7s3.134,7,7,7h438.096c3.866,0,7-3.134,7-7
			S520.881,386.764,517.015,386.764z"/>
		<path fill="#334468" d="M517.015,514.764H355.919c-3.866,0-7,3.134-7,7s3.134,7,7,7h161.096c3.866,0,7-3.134,7-7
			S520.881,514.764,517.015,514.764z"/>
		<path fill="#334468" d="M517.015,330.764H78.919c-3.866,0-7,3.134-7,7s3.134,7,7,7h438.096c3.866,0,7-3.134,7-7
			S520.881,330.764,517.015,330.764z"/>
	</g>
</g>
</svg>
