<?xml version="1.0" encoding="utf-8"?>
<!-- Generator: Adobe Illustrator 17.0.0, SVG Export Plug-In . SVG Version: 6.00 Build 0)  -->
<!DOCTYPE svg PUBLIC "-//W3C//DTD SVG 1.1//EN" "http://www.w3.org/Graphics/SVG/1.1/DTD/svg11.dtd">
<svg version="1.1" id="Layer_1" xmlns="http://www.w3.org/2000/svg" xmlns:xlink="http://www.w3.org/1999/xlink" x="0px" y="0px"
	 width="761.508px" height="761.508px" viewBox="-2884.847 575.626 761.508 761.508"
	 enable-background="new -2884.847 575.626 761.508 761.508" xml:space="preserve">
<linearGradient id="SVGID_1_" gradientUnits="userSpaceOnUse" x1="-2773.3264" y1="1225.6144" x2="-2234.8586" y2="687.1465">
	<stop  offset="0" style="stop-color:#E63AD8"/>
	<stop  offset="1" style="stop-color:#85A8EE"/>
</linearGradient>
<circle fill="url(#SVGID_1_)" cx="-2504.093" cy="956.38" r="380.754"/>
<g>
	<path fill="#FFFFFF" d="M-2400.093,885.755v29.25l14.633-14.625L-2400.093,885.755z"/>
	<path fill="#FFFFFF" d="M-2352.093,956.38v-112h-80v112H-2352.093z M-2416.093,866.443c0-3.234,1.949-6.148,4.938-7.387
		s6.43-0.555,8.719,1.73l33.945,33.938c3.121,3.125,3.121,8.188,0,11.313l-33.945,33.938c-2.289,2.285-5.73,2.969-8.719,1.73
		s-4.938-4.152-4.938-7.387V866.443z"/>
	<path fill="#FFFFFF" d="M-2528.093,1059.005l14.633-14.625l-14.633-14.625V1059.005z"/>
	<path fill="#FFFFFF" d="M-2528.093,988.38c-30.93,0-56,25.07-56,56c0,30.93,25.07,56,56,56s56-25.07,56-56
		C-2472.128,1013.466-2497.178,988.416-2528.093,988.38z M-2496.491,1050.037l-33.945,33.938c-2.289,2.285-5.73,2.969-8.719,1.73
		s-4.938-4.152-4.938-7.387v-67.875c0-3.234,1.949-6.148,4.938-7.387s6.43-0.555,8.719,1.73l33.945,33.938
		C-2493.37,1041.849-2493.37,1046.912-2496.491,1050.037z"/>
	<path fill="#FFFFFF" d="M-2464.093,908.38h16v16h-16V908.38z"/>
	<path fill="#FFFFFF" d="M-2432.093,972.517v-0.137h-48v-144h48.129c0-0.223-0.129-0.414-0.129-0.641V780.38h-256v352h256V972.517z
		 M-2632.093,1116.38h-40v-40h16v24h24V1116.38z M-2632.093,812.38h-24v24h-16v-40h40V812.38z M-2528.093,1116.38
		c-39.766,0-72-32.234-72-72c0-39.766,32.234-72,72-72s72,32.234,72,72C-2456.135,1084.127-2488.346,1116.338-2528.093,1116.38z"/>
	<path fill="#FFFFFF" d="M-2432.093,1148.38h-256v8c0,13.254,10.746,24,24,24h208c13.254,0,24-10.746,24-24V1148.38z
		 M-2544.093,1172.38h-32c-4.418,0-8-3.582-8-8s3.582-8,8-8h32c4.418,0,8,3.582,8,8S-2539.675,1172.38-2544.093,1172.38z"/>
	<path fill="#FFFFFF" d="M-2688.093,764.38h256v-8c0-13.254-10.746-24-24-24h-208c-13.254,0-24,10.746-24,24V764.38z
		 M-2552.093,740.38h16c4.418,0,8,3.582,8,8s-3.582,8-8,8h-16c-4.418,0-8-3.582-8-8S-2556.51,740.38-2552.093,740.38z
		 M-2584.093,740.38h8c4.418,0,8,3.582,8,8s-3.582,8-8,8h-8c-4.418,0-8-3.582-8-8S-2588.51,740.38-2584.093,740.38z"/>
	<path fill="#FFFFFF" d="M-2336.093,940.38h16v16h-16V940.38z"/>
	<path fill="#FFFFFF" d="M-2336.093,876.38h16v16h-16V876.38z"/>
	<path fill="#FFFFFF" d="M-2336.093,908.38h16v16h-16V908.38z"/>
	<path fill="#FFFFFF" d="M-2336.093,844.38h16v16h-16V844.38z"/>
	<path fill="#FFFFFF" d="M-2464.093,876.38h16v16h-16V876.38z"/>
	<path fill="#FFFFFF" d="M-2464.093,940.38h16v16h-16V940.38z"/>
	<path fill="#FFFFFF" d="M-2464.093,844.38h16v16h-16V844.38z"/>
</g>
</svg>
