<?xml version="1.0" encoding="utf-8"?>
<!-- Generator: Adobe Illustrator 17.0.0, SVG Export Plug-In . SVG Version: 6.00 Build 0)  -->
<!DOCTYPE svg PUBLIC "-//W3C//DTD SVG 1.1//EN" "http://www.w3.org/Graphics/SVG/1.1/DTD/svg11.dtd">
<svg version="1.1" id="Layer_1" xmlns="http://www.w3.org/2000/svg" xmlns:xlink="http://www.w3.org/1999/xlink" x="0px" y="0px"
	 width="761.508px" height="761.508px" viewBox="-997.277 575.626 761.508 761.508"
	 enable-background="new -997.277 575.626 761.508 761.508" xml:space="preserve">
<linearGradient id="SVGID_1_" gradientUnits="userSpaceOnUse" x1="-885.757" y1="1225.6144" x2="-347.2892" y2="687.1465">
	<stop  offset="0" style="stop-color:#32ADA9"/>
	<stop  offset="1" style="stop-color:#53CCA4"/>
</linearGradient>
<circle fill="url(#SVGID_1_)" cx="-616.523" cy="956.38" r="380.754"/>
<g>
	<path fill="#FFFFFF" d="M-560.523,1148.38h-256v8c0,13.254,10.746,24,24,24h208c13.254,0,24-10.746,24-24V1148.38z
		 M-672.523,1172.38h-32c-4.418,0-8-3.582-8-8s3.582-8,8-8h32c4.418,0,8,3.582,8,8S-668.105,1172.38-672.523,1172.38z"/>
	<path fill="#FFFFFF" d="M-480.523,1068.38v-22.863c-11.195,2.926-19.938,11.668-22.863,22.863H-480.523z"/>
	<path fill="#FFFFFF" d="M-560.523,1084.517c0-0.047,0-0.09,0-0.137h-200c-4.418,0-8-3.582-8-8v-192c0-4.418,3.582-8,8-8h56v-40
		c0-4.418,3.582-8,8-8h136.129c0-0.223-0.129-0.414-0.129-0.641V780.38h-256v352h256V1084.517z M-800.523,796.38h40v16h-24v24h-16
		V796.38z M-760.523,1116.38h-40v-40h16v24h24V1116.38z"/>
	<path fill="#FFFFFF" d="M-616.523,916.38c-35.348,0-64,28.652-64,64s28.652,64,64,64s64-28.652,64-64
		C-552.562,945.052-581.195,916.419-616.523,916.38z M-616.523,972.38c11.676-0.023,21.664,8.379,23.645,19.887
		c1.977,11.508-4.633,22.762-15.645,26.641v9.473c0,4.418-3.582,8-8,8s-8-3.582-8-8v-9.473c-9.555-3.379-15.957-12.395-16-22.527
		c0-4.418,3.582-8,8-8s8,3.582,8,8s3.582,8,8,8s8-3.582,8-8s-3.582-8-8-8c-11.676,0.023-21.664-8.379-23.645-19.887
		c-1.977-11.508,4.633-22.762,15.645-26.641v-9.473c0-4.418,3.582-8,8-8s8,3.582,8,8v9.473c9.555,3.379,15.957,12.395,16,22.527
		c0,4.418-3.582,8-8,8s-8-3.582-8-8s-3.582-8-8-8s-8,3.582-8,8S-620.941,972.38-616.523,972.38z"/>
	<path fill="#FFFFFF" d="M-480.523,1028.38v-96.719c-20.102-3.438-35.844-19.18-39.281-39.281h-193.438
		c-3.438,20.102-19.18,35.844-39.281,39.281v97.438c20.102,3.438,35.844,19.18,39.281,39.281h193.438
		c3.438-20.102,19.18-35.844,39.281-39.281V1028.38z M-712.523,988.38h-16c-4.418,0-8-3.582-8-8s3.582-8,8-8h16c4.418,0,8,3.582,8,8
		S-708.105,988.38-712.523,988.38z M-616.523,1060.38c-44.184,0-80-35.816-80-80c0-44.184,35.816-80,80-80s80,35.816,80,80
		C-536.57,1024.545-572.359,1060.334-616.523,1060.38z M-504.523,988.38h-16c-4.418,0-8-3.582-8-8s3.582-8,8-8h16
		c4.418,0,8,3.582,8,8S-500.105,988.38-504.523,988.38z"/>
	<path fill="#FFFFFF" d="M-464.523,1020.38h48v-176h-272v32h216c4.418,0,8,3.582,8,8V1020.38z"/>
	<path fill="#FFFFFF" d="M-480.523,892.38h-22.984c2.93,11.262,11.723,20.059,22.984,22.992V892.38z"/>
	<path fill="#FFFFFF" d="M-729.66,892.38h-22.863v22.863C-741.328,912.318-732.586,903.576-729.66,892.38z"/>
	<path fill="#FFFFFF" d="M-752.523,1045.388v22.992h22.984C-732.468,1057.119-741.261,1048.322-752.523,1045.388z"/>
	<path fill="#FFFFFF" d="M-816.523,764.38h256v-8c0-13.254-10.746-24-24-24h-208c-13.254,0-24,10.746-24,24V764.38z
		 M-680.523,740.38h16c4.418,0,8,3.582,8,8s-3.582,8-8,8h-16c-4.418,0-8-3.582-8-8S-684.941,740.38-680.523,740.38z
		 M-712.523,740.38h8c4.418,0,8,3.582,8,8s-3.582,8-8,8h-8c-4.418,0-8-3.582-8-8S-716.941,740.38-712.523,740.38z"/>
</g>
</svg>
