<?xml version="1.0" encoding="utf-8"?>
<!-- Generator: Adobe Illustrator 17.0.0, SVG Export Plug-In . SVG Version: 6.00 Build 0)  -->
<!DOCTYPE svg PUBLIC "-//W3C//DTD SVG 1.1//EN" "http://www.w3.org/Graphics/SVG/1.1/DTD/svg11.dtd">
<svg version="1.1" id="Layer_1" xmlns="http://www.w3.org/2000/svg" xmlns:xlink="http://www.w3.org/1999/xlink" x="0px" y="0px"
	 width="761.508px" height="761.508px" viewBox="780.37 575.626 761.508 761.508"
	 enable-background="new 780.37 575.626 761.508 761.508" xml:space="preserve">
<linearGradient id="SVGID_1_" gradientUnits="userSpaceOnUse" x1="891.8898" y1="1225.6144" x2="1430.3577" y2="687.1465">
	<stop  offset="0" style="stop-color:#4257F1"/>
	<stop  offset="1" style="stop-color:#52BDFC"/>
</linearGradient>
<circle fill="url(#SVGID_1_)" cx="1161.124" cy="956.38" r="380.754"/>
<g>
	<g id="Layer_1_142_">
		<g>
			<path fill="#FFFFFF" d="M1148.697,877.805l6.01-38.691l-3.025-4.874c-0.432-0.673-0.352-1.558,0.191-2.151l7.889-8.522
				c0.683-0.724,1.929-0.724,2.613,0l7.889,8.522c0.543,0.593,0.623,1.467,0.191,2.151l-3.025,4.874l6.01,38.681
				c47.465-0.794,76.207-6.211,76.207-11.859c0-27.586-18.753-28.802-39.596-35.616c-12.844-4.171-28.762-6.522-25.345-28.652
				c8.462-7.738,11.406-23.667,11.406-23.667s11.266-5.678,12.562-16.552c0.955-8.291-3.377-12.14-3.377-12.14s0-0.593,0-10.512
				c0-23.416-20.059-41.857-44.189-41.857c-24.139,0-44.199,18.441-44.199,41.857c0,9.919,0,10.512,0,10.512
				s-4.321,3.849-3.367,12.14c1.286,10.874,12.552,16.552,12.552,16.552s2.955,15.939,11.417,23.667
				c3.397,22.119-12.512,24.481-25.355,28.652c-20.853,6.814-39.596,8.03-39.596,35.616
				C1072.5,871.574,1101.232,877.001,1148.697,877.805z"/>
			<path fill="#FFFFFF" d="M1062.42,1086.336c-12.844-4.181-28.762-6.522-25.355-28.672c8.462-7.738,11.417-23.657,11.417-23.657
				s11.256-5.658,12.552-16.542c0.955-8.301-3.367-12.15-3.367-12.15s0-0.603,0-10.502c0-23.416-20.059-41.867-44.199-41.867
				c-24.139,0-44.199,18.451-44.199,41.867c0,9.909,0,10.502,0,10.502s-4.321,3.849-3.367,12.15
				c1.286,10.874,12.552,16.542,12.552,16.542s2.955,15.929,11.416,23.657c3.397,22.129-12.512,24.491-25.355,28.672
				c-20.853,6.794-39.596,8.03-39.596,35.606c0,5.648,28.732,11.085,76.207,11.879l6.01-38.691l-3.025-4.884
				c-0.432-0.683-0.352-1.548,0.191-2.141l7.889-8.542c0.683-0.703,1.93-0.703,2.613,0l7.889,8.542
				c0.543,0.593,0.623,1.467,0.191,2.141l-3.025,4.874l6.01,38.681c47.465-0.784,76.207-6.221,76.207-11.869
				C1102.016,1094.366,1083.264,1093.13,1062.42,1086.336z"/>
			<path fill="#FFFFFF" d="M1357.631,1086.336c-12.833-4.181-28.752-6.522-25.345-28.672c8.462-7.738,11.416-23.657,11.416-23.657
				s11.256-5.658,12.552-16.542c0.955-8.301-3.367-12.15-3.367-12.15s0-0.603,0-10.502c0-23.416-20.059-41.867-44.199-41.867
				c-24.129,0-44.189,18.451-44.189,41.867c0,9.909,0,10.502,0,10.502s-4.331,3.849-3.367,12.15
				c1.286,10.874,12.552,16.542,12.552,16.542s2.955,15.929,11.417,23.657c3.397,22.129-12.502,24.491-25.355,28.672
				c-20.843,6.804-39.586,8.03-39.586,35.606c0,5.648,28.732,11.085,76.207,11.879l6.02-38.691l-3.035-4.874
				c-0.432-0.683-0.342-1.548,0.191-2.141l7.889-8.542c0.683-0.703,1.93-0.703,2.613,0l7.889,8.542
				c0.553,0.593,0.623,1.467,0.201,2.141l-3.025,4.874l6.01,38.681c47.465-0.784,76.207-6.221,76.207-11.869
				C1397.226,1094.366,1378.474,1093.13,1357.631,1086.336z"/>
			<path fill="#FFFFFF" d="M1231.406,1044.258c3.387,0,6.743-1.457,9.075-4.261c4.181-5.015,3.497-12.462-1.518-16.622
				l-66.097-55.012v-64.811c0-6.522-5.286-11.808-11.808-11.808s-11.808,5.286-11.808,11.808v64.811l-66.097,55.012
				c-5.015,4.161-5.698,11.607-1.528,16.622s11.617,5.688,16.632,1.507l62.801-52.248l62.801,52.248
				C1226.06,1043.353,1228.723,1044.258,1231.406,1044.258z"/>
		</g>
	</g>
</g>
</svg>
