<?xml version="1.0" encoding="utf-8"?>
<!-- Generator: Adobe Illustrator 17.0.0, SVG Export Plug-In . SVG Version: 6.00 Build 0)  -->
<!DOCTYPE svg PUBLIC "-//W3C//DTD SVG 1.1//EN" "http://www.w3.org/Graphics/SVG/1.1/DTD/svg11.dtd">
<svg version="1.1" id="Layer_1" xmlns="http://www.w3.org/2000/svg" xmlns:xlink="http://www.w3.org/1999/xlink" x="0px" y="0px"
	 width="761.508px" height="761.508px" viewBox="1718.941 575.626 761.508 761.508"
	 enable-background="new 1718.941 575.626 761.508 761.508" xml:space="preserve">
<linearGradient id="SVGID_1_" gradientUnits="userSpaceOnUse" x1="1830.4613" y1="1225.6144" x2="2368.929" y2="687.1465">
	<stop  offset="0" style="stop-color:#EC131F"/>
	<stop  offset="1" style="stop-color:#E04551"/>
</linearGradient>
<circle fill="url(#SVGID_1_)" cx="2099.695" cy="956.38" r="380.754"/>
<g>
	<path fill="#FFFFFF" d="M2100.228,778.023c23.492,0,42.603-19.112,42.603-42.603s-19.112-42.603-42.603-42.603
		s-42.603,19.112-42.603,42.603C2057.625,758.912,2076.737,778.023,2100.228,778.023z"/>
	<path fill="#FFFFFF" d="M2033.06,908.709h134.32c8.748,0,15.838-7.092,15.838-15.84v-58.566c0-16.212-10.418-30.588-25.824-35.635
		l-0.072-0.024l-22.534-3.731c-1.918-0.589-3.968,0.425-4.657,2.318l-25.567,70.154c-1.475,4.047-7.198,4.047-8.673,0
		l-25.569-70.154c-0.558-1.528-1.999-2.485-3.544-2.485c-0.366,0-23.646,3.895-23.646,3.895
		c-15.533,5.175-25.911,19.575-25.911,35.857v58.373C2017.222,901.619,2024.312,908.709,2033.06,908.709L2033.06,908.709z"/>
	<path fill="#FFFFFF" d="M2294.486,1016.796c-0.083-0.027-0.167-0.055-0.25-0.081l-12.195-3.74
		c-3.668-1.124-7.651-0.235-10.491,2.332l-26.289,23.767l-26.289-23.767c-2.841-2.569-6.825-3.459-10.491-2.332l-12.196,3.74
		c-0.083,0.026-0.167,0.053-0.25,0.081c-18.41,6.137-30.778,23.298-30.778,42.703v67.559c0,6.012,4.873,10.885,10.885,10.885
		h138.236c6.012,0,10.885-4.873,10.885-10.885v-67.559C2325.264,1040.094,2312.895,1022.933,2294.486,1016.796L2294.486,1016.796z"
		/>
	<path fill="#FFFFFF" d="M2245.261,1005.468c25.057,0,45.443-20.386,45.443-45.443c0-25.057-20.386-45.443-45.443-45.443
		c-25.059,0-45.445,20.386-45.445,45.443S2220.202,1005.468,2245.261,1005.468L2245.261,1005.468z"/>
	<path fill="#FFFFFF" d="M2003.356,1016.796c-0.083-0.027-0.167-0.055-0.251-0.081l-12.194-3.74
		c-3.667-1.127-7.651-0.237-10.492,2.332l-26.29,23.767l-26.289-23.767c-2.84-2.569-6.825-3.459-10.492-2.332
		c0,0-12.36,3.793-12.445,3.82c-18.407,6.137-30.776,23.298-30.776,42.703v67.559c0,6.012,4.873,10.885,10.885,10.885h138.236
		c6.012,0,10.885-4.873,10.885-10.885v-67.559C2034.134,1040.094,2021.766,1022.933,2003.356,1016.796z"/>
	<path fill="#FFFFFF" d="M1908.686,960.023c0,25.057,20.386,45.443,45.443,45.443c25.058,0,45.445-20.386,45.445-45.443
		c0-25.057-20.386-45.443-45.445-45.443C1929.073,914.58,1908.686,934.966,1908.686,960.023z"/>
	<path fill="#FFFFFF" d="M2257.678,840.185c-3.723-1.115-7.917-0.357-11.051,2.398c-4.838,4.252-5.313,11.622-1.062,16.46
		l15.943,18.143c2.215,2.518,5.406,3.963,8.76,3.963c3.354,0,6.547-1.445,8.76-3.963l15.943-18.143
		c4.252-4.838,3.776-12.208-1.062-16.46c-3.611-3.173-8.629-3.708-12.711-1.77c-2.373-25.473-12.298-49.376-28.744-68.09
		c-4.252-4.838-11.62-5.315-16.46-1.062c-4.838,4.252-5.313,11.622-1.062,16.46C2247.515,802.435,2255.327,820.634,2257.678,840.185
		L2257.678,840.185z"/>
	<path fill="#FFFFFF" d="M1921.411,877.186c2.215,2.518,5.406,3.963,8.76,3.963s6.547-1.445,8.76-3.963l15.943-18.143
		c4.252-4.838,3.776-12.208-1.062-16.46c-3.135-2.754-7.328-3.512-11.051-2.397c2.351-19.551,10.163-37.75,22.742-52.063
		c4.252-4.838,3.776-12.208-1.062-16.46c-4.839-4.252-12.208-3.775-16.46,1.062c-16.444,18.714-26.369,42.616-28.744,68.088
		c-4.083-1.94-9.1-1.404-12.711,1.77c-4.838,4.252-5.313,11.622-1.062,16.46C1905.466,859.043,1921.411,877.186,1921.411,877.186z"
		/>
	<path fill="#FFFFFF" d="M2108.994,795.583c-0.983-1.071-2.421-1.61-3.875-1.61h-10.845c-1.454,0-2.892,0.539-3.875,1.61
		c-1.522,1.659-1.742,4.054-0.662,5.927l5.798,8.74l-2.714,22.896l5.344,14.218c0.521,1.429,2.543,1.429,3.064,0l5.344-14.218
		l-2.714-22.896l5.798-8.74C2110.736,799.638,2110.516,797.242,2108.994,795.583L2108.994,795.583z"/>
</g>
</svg>
