<?xml version="1.0" encoding="utf-8"?>
<!-- Generator: Adobe Illustrator 17.0.0, SVG Export Plug-In . SVG Version: 6.00 Build 0)  -->
<!DOCTYPE svg PUBLIC "-//W3C//DTD SVG 1.1//EN" "http://www.w3.org/Graphics/SVG/1.1/DTD/svg11.dtd">
<svg version="1.1" id="Layer_1" xmlns="http://www.w3.org/2000/svg" xmlns:xlink="http://www.w3.org/1999/xlink" x="0px" y="0px"
	 width="761.508px" height="761.508px" viewBox="-1917.8 575.626 761.508 761.508"
	 enable-background="new -1917.8 575.626 761.508 761.508" xml:space="preserve">
<linearGradient id="SVGID_1_" gradientUnits="userSpaceOnUse" x1="-1806.28" y1="1225.6144" x2="-1267.8123" y2="687.1465">
	<stop  offset="0" style="stop-color:#FF9465"/>
	<stop  offset="1" style="stop-color:#FEC55F"/>
</linearGradient>
<circle fill="url(#SVGID_1_)" cx="-1537.046" cy="956.38" r="380.754"/>
<g>
	<path fill="#FFFFFF" d="M-1473.046,1084.517c0-0.047,0-0.09,0-0.137h-160c-4.418,0-8-3.582-8-8v-144c0-4.418,3.582-8,8-8h80v-88
		c0-4.418,3.582-8,8-8h72.129c0-0.223-0.129-0.414-0.129-0.641V780.38h-256v352h256V1084.517z M-1673.046,1116.38h-40v-40h16v24h24
		V1116.38z M-1673.046,812.38h-24v24h-16v-40h40V812.38z"/>
	<path fill="#FFFFFF" d="M-1729.046,764.38h256v-8c0-13.254-10.746-24-24-24h-208c-13.254,0-24,10.746-24,24V764.38z
		 M-1593.046,740.38h16c4.418,0,8,3.582,8,8s-3.582,8-8,8h-16c-4.418,0-8-3.582-8-8S-1597.464,740.38-1593.046,740.38z
		 M-1625.046,740.38h8c4.418,0,8,3.582,8,8s-3.582,8-8,8h-8c-4.418,0-8-3.582-8-8S-1629.464,740.38-1625.046,740.38z"/>
	<path fill="#FFFFFF" d="M-1345.046,972.38v-96h-192v48h112c4.418,0,8,3.582,8,8v40H-1345.046z M-1401.046,940.38h32
		c4.418,0,8,3.582,8,8s-3.582,8-8,8h-32c-4.418,0-8-3.582-8-8S-1405.464,940.38-1401.046,940.38z"/>
	<path fill="#FFFFFF" d="M-1473.046,1148.38h-256v8c0,13.254,10.746,24,24,24h208c13.254,0,24-10.746,24-24V1148.38z
		 M-1585.046,1172.38h-32c-4.418,0-8-3.582-8-8s3.582-8,8-8h32c4.418,0,8,3.582,8,8S-1580.628,1172.38-1585.046,1172.38z"/>
	<path fill="#FFFFFF" d="M-1489.046,1036.38c0,4.418-3.582,8-8,8s-8-3.582-8-8s3.582-8,8-8S-1489.046,1031.963-1489.046,1036.38z"/>
	<path fill="#FFFFFF" d="M-1433.046,940.38h-192v128h192V940.38z M-1473.046,956.38h16c4.418,0,8,3.582,8,8s-3.582,8-8,8h-16
		c-4.418,0-8-3.582-8-8S-1477.464,956.38-1473.046,956.38z M-1513.046,956.38h16c4.418,0,8,3.582,8,8s-3.582,8-8,8h-16
		c-4.418,0-8-3.582-8-8S-1517.464,956.38-1513.046,956.38z M-1601.046,956.38h16c4.418,0,8,3.582,8,8s-3.582,8-8,8h-16
		c-4.418,0-8-3.582-8-8S-1605.464,956.38-1601.046,956.38z M-1569.046,1052.38h-32c-4.418,0-8-3.582-8-8s3.582-8,8-8h32
		c4.418,0,8,3.582,8,8S-1564.628,1052.38-1569.046,1052.38z M-1545.046,972.38h-16c-4.418,0-8-3.582-8-8s3.582-8,8-8h16
		c4.418,0,8,3.582,8,8S-1540.628,972.38-1545.046,972.38z M-1465.046,1060.38c-5.922-0.02-11.625-2.246-16-6.238
		c-9.59,8.715-24.363,8.242-33.379-1.063c-9.02-9.309-9.02-24.09,0-33.398c9.016-9.305,23.789-9.777,33.379-1.063
		c7.945-7.223,19.723-8.285,28.836-2.605s13.344,16.723,10.359,27.039C-1444.835,1053.365-1454.308,1060.443-1465.046,1060.38z"/>
	<path fill="#FFFFFF" d="M-1457.046,1036.38c0,4.418-3.582,8-8,8s-8-3.582-8-8s3.582-8,8-8S-1457.046,1031.963-1457.046,1036.38z"/>
	<path fill="#FFFFFF" d="M-1537.046,844.38h192v16h-192V844.38z"/>
</g>
</svg>
