<?xml version="1.0" encoding="utf-8"?>
<!-- Generator: Adobe Illustrator 17.0.0, SVG Export Plug-In . SVG Version: 6.00 Build 0)  -->
<!DOCTYPE svg PUBLIC "-//W3C//DTD SVG 1.1//EN" "http://www.w3.org/Graphics/SVG/1.1/DTD/svg11.dtd">
<svg version="1.1" id="Layer_1" xmlns="http://www.w3.org/2000/svg" xmlns:xlink="http://www.w3.org/1999/xlink" x="0px" y="0px"
	 width="761.508px" height="761.508px" viewBox="-76.827 575.626 761.508 761.508"
	 enable-background="new -76.827 575.626 761.508 761.508" xml:space="preserve">
<linearGradient id="SVGID_1_" gradientUnits="userSpaceOnUse" x1="34.6937" y1="1225.6144" x2="573.1614" y2="687.1465">
	<stop  offset="0" style="stop-color:#FCD912"/>
	<stop  offset="1" style="stop-color:#53CCA4"/>
</linearGradient>
<circle fill="url(#SVGID_1_)" cx="303.928" cy="956.38" r="380.754"/>
<g>
	<g>
		<g>
			<circle fill="#FFFFFF" cx="303.924" cy="733.428" r="41.989"/>
		</g>
	</g>
	<g>
		<g>
			<path fill="#FFFFFF" d="M372.071,748.841c-7.058,31.172-34.868,54.568-68.143,54.568s-61.085-23.396-68.143-54.568
				c-25.03,5.577-43.827,27.878-43.827,54.568v55.985c0,15.431,12.561,27.993,27.993,27.993s27.993-12.561,27.993-27.993v-27.993
				h111.97v27.993c0,15.431,12.561,27.993,27.993,27.993c15.431,0,27.993-12.561,27.993-27.993V803.41
				C415.898,776.719,397.1,754.419,372.071,748.841z"/>
		</g>
	</g>
	<g>
		<g>
			<path fill="#FFFFFF" d="M520.863,1033.509c-20.084-11.595-45.763-4.716-57.358,15.368c-11.595,20.082-4.714,45.763,15.37,57.357
				c20.082,11.596,46.696,4.714,58.29-15.368C548.76,1070.782,540.945,1045.104,520.863,1033.509z"/>
		</g>
	</g>
	<g>
		<g>
			<path fill="#FFFFFF" d="M495.247,937.912l-48.483-27.993c-13.365-7.716-30.523-3.118-38.238,10.247s-3.118,30.523,10.247,38.238
				l24.242,13.996l-55.985,96.969l-24.242-13.996c-13.365-7.716-30.523-3.118-38.238,10.247
				c-7.716,13.365-3.118,30.523,10.247,38.238l48.483,27.993c23.116,13.345,51.828,8.216,69.171-10.672
				c-23.467-21.698-29.824-57.48-13.187-86.298c16.638-28.819,50.804-41.203,81.33-31.73
				C528.278,978.688,518.363,951.257,495.247,937.912z"/>
		</g>
	</g>
	<g>
		<g>
			<path fill="#FFFFFF" d="M144.351,1048.878c-11.595-20.084-37.274-26.964-57.358-15.368
				c-20.082,11.595-27.898,37.274-16.301,57.358c11.594,20.082,38.208,26.964,58.29,15.368
				C149.065,1094.64,155.945,1068.96,144.351,1048.878z"/>
		</g>
	</g>
	<g>
		<g>
			<path fill="#FFFFFF" d="M283.307,1065.62c-7.716-13.365-24.875-17.961-38.238-10.247l-24.242,13.996L164.841,972.4l24.242-13.996
				c13.365-7.716,17.961-24.875,10.247-38.238c-7.716-13.365-24.874-17.961-38.238-10.247l-48.483,27.993
				c-23.116,13.345-33.031,40.776-25.344,65.24c30.524-9.474,64.692,2.911,81.33,31.73s10.28,64.6-13.187,86.298
				c17.343,18.887,46.055,24.017,69.171,10.672l48.483-27.994C286.425,1096.143,291.023,1078.984,283.307,1065.62z"/>
		</g>
	</g>
</g>
</svg>
