<?xml version="1.0" encoding="iso-8859-1"?>
<!-- Generator: Adobe Illustrator 19.0.0, SVG Export Plug-In . SVG Version: 6.00 Build 0)  -->
<svg version="1.1" id="Capa_1" xmlns="http://www.w3.org/2000/svg" xmlns:xlink="http://www.w3.org/1999/xlink" x="0px" y="0px"
	 viewBox="0 0 512 512" style="enable-background:new 0 0 512 512;" xml:space="preserve">
<circle style="fill:#FDE180;" cx="253.109" cy="166.769" r="79.889"/>
<circle style="fill:#FCDA60;" cx="253.109" cy="166.769" r="55.922"/>
<path style="fill:#FEF0BF;" d="M303.933,368.699H64.266v-63.911h239.668c17.649,0,31.956,14.307,31.956,31.956l0,0
	C335.889,354.392,321.582,368.699,303.933,368.699z"/>
<path style="fill:#FDE9A0;" d="M303.933,344.732H192.088v23.967h111.845c17.649,0,31.956-14.307,31.956-31.956l0,0
	c0-4.239-0.833-8.282-2.332-11.983C328.816,336.469,317.343,344.732,303.933,344.732z"/>
<path style="fill:#FEF0BF;" d="M64.266,448.588l159.778,55.922l159.778-31.956l119.834-87.878l-14.23-21.344
	c-9.789-14.685-29.63-18.652-44.315-8.863l-93.245,62.164h-71.9L224.044,368.7H64.266C64.266,368.7,64.266,448.588,64.266,448.588z"
	/>
<polygon style="fill:#FDE9A0;" points="383.822,448.588 224.044,480.544 64.266,424.621 64.266,448.588 224.044,504.51 
	383.822,472.555 503.656,384.677 492.924,368.58 "/>
<rect x="8.343" y="303.08" style="fill:#FEF0BF;" width="55.922" height="145.508"/>
<rect x="8.343" y="424.621" style="fill:#FDE9A0;" width="55.922" height="23.967"/>
<path d="M320.85,61.654L344.77,77.6c2.471,1.703,5.933,1.703,8.403,0l23.92-15.946c3.441-2.294,4.372-6.944,2.077-10.386
	c-2.295-3.442-6.945-4.371-10.386-2.077l-12.323,8.216V7.49c0-4.136-3.352-7.49-7.49-7.49s-7.49,3.353-7.49,7.49v49.917
	l-12.323-8.216c-3.44-2.294-8.093-1.365-10.386,2.077C316.478,54.71,317.409,59.361,320.85,61.654z"/>
<path d="M57.215,205.455l23.92,15.946c2.471,1.703,5.933,1.703,8.403,0l23.92-15.946c3.441-2.294,4.372-6.944,2.077-10.386
	c-2.295-3.441-6.945-4.371-10.386-2.077l-12.323,8.216V151.29c0-4.136-3.352-7.49-7.49-7.49s-7.49,3.353-7.49,7.49v49.917
	l-12.323-8.216c-3.44-2.294-8.093-1.365-10.386,2.077C52.843,198.511,53.774,203.161,57.215,205.455z"/>
<path d="M392.75,293.333l23.92,15.946c2.471,1.703,5.933,1.703,8.403,0l23.92-15.946c3.441-2.294,4.372-6.944,2.077-10.386
	c-2.295-3.442-6.944-4.372-10.386-2.077l-12.323,8.216v-49.918c0-4.136-3.352-7.49-7.49-7.49s-7.49,3.353-7.49,7.49v49.917
	l-12.323-8.216c-3.441-2.295-8.092-1.365-10.386,2.077C388.378,286.389,389.309,291.039,392.75,293.333z"/>
<path d="M253.105,254.148c48.181,0,87.379-39.198,87.379-87.379S301.286,79.39,253.105,79.39s-87.379,39.198-87.379,87.379
	S204.923,254.148,253.105,254.148z M253.105,94.369c39.922,0,72.4,32.478,72.4,72.4s-32.478,72.4-72.4,72.4s-72.4-32.478-72.4-72.4
	S213.183,94.369,253.105,94.369z"/>
<path d="M255.7,195.629h-7.789c-4.46,0-8.089-3.629-8.089-8.089c0-4.136-3.352-7.49-7.49-7.49s-7.49,3.353-7.49,7.49
	c0,11.944,9.125,21.797,20.771,22.953v8.204c0,4.136,3.352,7.49,7.49,7.49s7.49-3.353,7.49-7.49v-8.562
	c11.818-2.292,20.771-12.712,20.771-25.191c0-14.151-11.513-25.664-25.664-25.664h-5.192c-5.892,0-10.685-4.793-10.685-10.685
	c0-5.892,4.793-10.685,10.685-10.685h7.789c4.46,0,8.089,3.629,8.089,8.089v5.193c0,4.136,3.352,7.49,7.49,7.49
	s7.49-3.353,7.49-7.49v-5.193c0-11.944-9.125-21.797-20.771-22.953v-8.204c0-4.136-3.352-7.49-7.49-7.49s-7.49,3.353-7.49,7.49
	v8.562c-11.818,2.292-20.771,12.712-20.771,25.191c0,14.151,11.513,25.664,25.664,25.664h5.192c5.892,0,10.685,4.793,10.685,10.685
	C266.385,190.835,261.593,195.629,255.7,195.629z"/>
<path d="M509.888,380.522l-14.23-21.345c-5.844-8.767-14.752-14.733-25.084-16.799c-10.33-2.066-20.85,0.014-29.616,5.859
	L349.6,409.143h-66.862l-38.447-32.954h59.643c21.75,0,39.445-17.695,39.445-39.445c0-21.75-17.695-39.445-39.445-39.445H101.215
	c-4.137,0-7.49,3.353-7.49,7.49s3.352,7.49,7.49,7.49h202.719c13.491,0,24.466,10.976,24.466,24.466s-10.975,24.466-24.466,24.466
	H192.089c-4.137,0-7.49,3.353-7.49,7.49s3.352,7.49,7.49,7.49h29.186l53.818,46.13c1.357,1.163,3.087,1.803,4.874,1.803h71.9
	c1.478,0,2.925-0.437,4.154-1.258l93.245-62.164c5.437-3.625,11.962-4.915,18.371-3.634c6.408,1.282,11.933,4.982,15.558,10.42
	l10.257,15.387L380.73,465.534l-156.144,31.229L66.739,441.519c-0.031-0.011-0.063-0.017-0.094-0.028
	c-0.146-0.049-0.295-0.091-0.444-0.131c-0.101-0.027-0.201-0.055-0.302-0.078c-0.123-0.027-0.248-0.049-0.372-0.07
	c-0.132-0.023-0.264-0.045-0.395-0.06c-0.097-0.011-0.195-0.018-0.294-0.025c-0.16-0.012-0.319-0.022-0.477-0.024
	c-0.032,0-0.063-0.005-0.095-0.005H8.343c-4.137,0-7.49,3.353-7.49,7.49s3.352,7.49,7.49,7.49h54.649l158.577,55.502
	c0.799,0.28,1.636,0.42,2.475,0.42c0.491,0,0.983-0.048,1.469-0.146l159.778-31.956c1.07-0.214,2.08-0.659,2.961-1.305
	l119.834-87.878C511.316,388.347,512.111,383.856,509.888,380.522z"/>
<path d="M8.343,312.277h55.922c4.137,0,7.49-3.353,7.49-7.49s-3.352-7.49-7.49-7.49H8.343c-4.137,0-7.49,3.353-7.49,7.49
	S4.206,312.277,8.343,312.277z"/>
<g>
</g>
<g>
</g>
<g>
</g>
<g>
</g>
<g>
</g>
<g>
</g>
<g>
</g>
<g>
</g>
<g>
</g>
<g>
</g>
<g>
</g>
<g>
</g>
<g>
</g>
<g>
</g>
<g>
</g>
</svg>
