<?xml version="1.0" encoding="utf-8"?>
<!-- Generator: Adobe Illustrator 17.0.0, SVG Export Plug-In . SVG Version: 6.00 Build 0)  -->
<!DOCTYPE svg PUBLIC "-//W3C//DTD SVG 1.1//EN" "http://www.w3.org/Graphics/SVG/1.1/DTD/svg11.dtd">
<svg version="1.1" id="Capa_1" xmlns="http://www.w3.org/2000/svg" xmlns:xlink="http://www.w3.org/1999/xlink" x="0px" y="0px"
	 width="688.572px" height="528.441px" viewBox="0 156.724 688.572 528.441" enable-background="new 0 156.724 688.572 528.441"
	 xml:space="preserve">
<g>
	<path fill="#2AB354" d="M607.308,500.589c-3.729-0.459-7.524-0.699-11.374-0.699c-51.079,0-92.638,41.555-92.638,92.638
		c0,4.604,0.343,9.129,0.994,13.554c6.579,44.68,45.168,79.084,91.644,79.084c51.079,0,92.638-41.555,92.638-92.638
		C688.572,545.296,653.041,506.214,607.308,500.589z M640.471,599.654h-37.412v39.193c0,3.933-3.192,7.126-7.126,7.126
		s-7.126-3.193-7.126-7.126v-39.193h-37.412c-3.933,0-7.126-3.192-7.126-7.126s3.193-7.126,7.126-7.126h37.412v-35.63
		c0-3.934,3.192-7.126,7.126-7.126s7.126,3.192,7.126,7.126v35.63h37.412c3.933,0,7.126,3.193,7.126,7.126
		C647.597,596.462,644.405,599.654,640.471,599.654z"/>
	<path fill="#334468" d="M486.399,573.658H48.794C31.814,573.658,18,559.844,18,542.865V205.518
		c0-16.979,13.814-30.793,30.793-30.793H547.14c16.979,0,30.793,13.814,30.793,30.793v277.331c5.86-0.954,11.871-1.459,18-1.459
		V205.518c0-26.948-21.845-48.793-48.793-48.793H48.794C21.846,156.724,0,178.57,0,205.518v337.347
		c0,26.948,21.846,48.793,48.793,48.793h436.014C484.854,585.527,485.397,579.514,486.399,573.658z"/>
	<path fill="#334468" d="M238.439,304.742c5.486,0,9.921-4.445,9.921-9.921c0-5.476-4.435-9.921-9.921-9.921h-19.843
		c-5.487,0-9.921,4.445-9.921,9.921c0,5.476,4.435,9.921,9.921,9.921H238.439z"/>
	<path fill="#334468" d="M271.08,287.776c-1.796,1.885-2.877,4.465-2.877,7.044s1.081,5.159,2.877,7.044
		c1.875,1.786,4.465,2.877,7.044,2.877c2.679,0,5.159-1.091,7.044-2.877c1.786-1.885,2.877-4.465,2.877-7.044
		s-1.091-5.159-2.877-7.044C281.398,284.105,274.751,284.105,271.08,287.776z"/>
	<path fill="#334468" d="M278.124,235.292h-89.292c-5.486,0-9.921,4.445-9.921,9.921c0,5.477,4.435,9.921,9.921,9.921h89.292
		c5.486,0,9.921-4.445,9.921-9.921C288.046,239.737,283.611,235.292,278.124,235.292z"/>
	<path fill="#334468" d="M59.855,304.742h9.921c5.487,0,9.921-4.445,9.921-9.921c0-5.476-4.435-9.921-9.921-9.921h-9.921
		c-5.487,0-9.921,4.445-9.921,9.921C49.934,300.297,54.369,304.742,59.855,304.742z"/>
	<path fill="#334468" d="M109.462,284.899c-5.487,0-9.921,4.445-9.921,9.921c0,5.476,4.435,9.921,9.921,9.921h19.843
		c5.487,0,9.921-4.445,9.921-9.921c0-5.476-4.435-9.921-9.921-9.921H109.462z"/>
	<path fill="#334468" d="M188.832,294.82c0-5.477-4.435-9.921-9.921-9.921h-9.921c-5.487,0-9.921,4.445-9.921,9.921
		c0,5.476,4.435,9.921,9.921,9.921h9.921C184.397,304.742,188.832,300.297,188.832,294.82z"/>
	<path fill="#334468" d="M59.855,255.135h89.292c5.487,0,9.921-4.445,9.921-9.921c0-5.477-4.435-9.921-9.921-9.921H59.855
		c-5.487,0-9.921,4.445-9.921,9.921C49.934,250.69,54.369,255.135,59.855,255.135z"/>
	<path fill="#334468" d="M59.855,255.134h89.292c5.486,0,9.921-4.444,9.921-9.921c0-5.476-4.434-9.921-9.921-9.921H59.855
		c-5.486,0-9.921,4.445-9.921,9.921C49.934,250.689,54.368,255.134,59.855,255.134z"/>
	<path fill="#334468" d="M218.596,284.899c-5.486,0-9.921,4.444-9.921,9.921s4.435,9.922,9.921,9.921h19.843
		c5.486,0,9.921-4.445,9.921-9.921c0-5.476-4.435-9.921-9.921-9.921H218.596z"/>
	<path fill="#334468" d="M109.462,284.899c-5.486,0-9.921,4.445-9.921,9.921c0,5.476,4.434,9.921,9.921,9.921h19.843
		c5.486,0,9.921-4.444,9.921-9.921c0-5.476-4.435-9.921-9.921-9.921H109.462z"/>
	<path fill="#334468" d="M271.08,287.777c-1.796,1.885-2.877,4.465-2.877,7.044c0,2.579,1.081,5.159,2.877,7.044
		c1.875,1.786,4.465,2.877,7.044,2.877c2.679,0,5.159-1.091,7.044-2.877c1.786-1.885,2.877-4.465,2.877-7.044
		c0-2.579-1.091-5.159-2.877-7.044C281.398,284.106,274.751,284.106,271.08,287.777z"/>
	<path fill="#334468" d="M188.832,255.135h89.292c5.487,0,9.922-4.445,9.921-9.921c0-5.476-4.435-9.921-9.921-9.921h-89.292
		c-5.486,0-9.921,4.444-9.921,9.921C178.911,250.69,183.346,255.135,188.832,255.135z"/>
	<path fill="#334468" d="M59.855,304.741h9.921c5.486,0,9.921-4.445,9.921-9.921c0-5.476-4.434-9.921-9.921-9.921h-9.921
		c-5.486,0-9.921,4.445-9.921,9.921C49.934,300.296,54.368,304.741,59.855,304.741z"/>
	<polygon fill="#334468" points="367.416,225.371 367.416,225.371 546,225.371 546,344.427 367.416,344.427 367.416,344.427 
		546,344.427 546,225.371 	"/>
	<rect x="367.416" y="225.371" fill="#334468" width="0" height="119.056"/>
	<path fill="#334468" d="M546,225.371H367.416v119.056H546V225.371z M526.158,324.584L526.158,324.584l-138.899,0.001v-0.001v-79.37
		h138.899V324.584z"/>
	<rect x="387.259" y="324.584" fill="#334468" width="138.899" height="0.001"/>
	<path fill="#334468" d="M188.831,294.82c0-5.476-4.435-9.921-9.921-9.921h-9.921c-5.486,0-9.921,4.444-9.921,9.921
		s4.435,9.922,9.921,9.921h9.921C184.396,304.741,188.831,300.296,188.831,294.82z"/>
	<polygon fill="#334468" points="178.911,443.64 178.911,443.64 178.911,523.011 288.046,523.011 288.046,523.011 178.911,523.011 	
		"/>
	<polygon fill="#334468" points="49.934,523.011 49.934,523.011 159.069,523.011 159.069,523.011 159.068,523.011 	"/>
	<rect x="307.888" y="523.011" fill="#334468" width="109.135" height="0"/>
	<path fill="#334468" d="M49.934,523.011h109.134h0.001V443.64H49.934V523.011z M69.776,463.483h69.449v39.685H69.776V463.483z"/>
	<path fill="#334468" d="M307.888,443.64v79.371h109.135V443.64H307.888z M397.18,503.168h-69.449v-39.685h69.449V503.168z"/>
	<rect x="288.046" y="443.64" fill="#334468" width="0" height="79.371"/>
	<path fill="#334468" d="M178.911,443.64v79.371h109.135V443.64H178.911z M198.754,503.168v-39.685h69.449v39.685H198.754z"/>
</g>
</svg>
