<?xml version="1.0" encoding="utf-8"?>
<!-- Generator: Adobe Illustrator 22.1.0, SVG Export Plug-In . SVG Version: 6.00 Build 0)  -->
<svg version="1.1" id="Shape_681_1_" xmlns="http://www.w3.org/2000/svg" xmlns:xlink="http://www.w3.org/1999/xlink" x="0px"
	 y="0px" viewBox="0 0 50 49" style="enable-background:new 0 0 50 49;" xml:space="preserve">
<style type="text/css">
	.st0{fill-rule:evenodd;clip-rule:evenodd;fill:#333333;}
</style>
<g id="Shape_681">
	<g>
		<path class="st0" d="M34.5,26.2l-6.4,6.4c-0.7,0.7-0.7,1.8,0,2.4c0.3,0.3,0.8,0.5,1.2,0.5s0.9-0.2,1.2-0.5l9.3-9.3
			c0.7-0.7,0.7-1.8,0-2.4L30.6,14c-0.7-0.7-1.8-0.7-2.4,0c-0.7,0.7-0.7,1.8,0,2.4l6.4,6.4H1.7c-1,0-1.7,0.8-1.7,1.7
			c0,1,0.8,1.7,1.7,1.7H34.5z M39.7,0H11.3C5.6,0,1,4.6,1,10.3v5.8c0,1,0.8,1.7,1.7,1.7c1,0,1.7-0.8,1.7-1.7v-5.8
			c0-3.8,3.1-6.9,6.9-6.9h28.4c3.8,0,6.9,3.1,6.9,6.9v28.4c0,3.8-3.1,6.9-6.9,6.9H11.3c-3.8,0-6.9-3.1-6.9-6.9v-5.8
			c0-1-0.8-1.7-1.7-1.7S1,32,1,32.9v5.8C1,44.4,5.6,49,11.3,49h28.4C45.4,49,50,44.4,50,38.7V10.3C50,4.6,45.4,0,39.7,0z"/>
	</g>
</g>
</svg>
