<?xml version="1.0" encoding="utf-8"?>
<!-- Generator: Adobe Illustrator 22.1.0, SVG Export Plug-In . SVG Version: 6.00 Build 0)  -->
<svg version="1.1" id="Shape_684_1_" xmlns="http://www.w3.org/2000/svg" xmlns:xlink="http://www.w3.org/1999/xlink" x="0px"
	 y="0px" viewBox="0 0 41 48" style="enable-background:new 0 0 41 48;" xml:space="preserve">
<style type="text/css">
	.st0{fill-rule:evenodd;clip-rule:evenodd;fill:#333333;}
</style>
<g id="Shape_684">
	<g>
		<path class="st0" d="M40.9,12.4c0-1.3,0-2.5,0-3.7c0-0.9-0.8-1.7-1.7-1.7c-7.3,0-12.9-2.1-17.5-6.5c-0.7-0.6-1.7-0.6-2.4,0
			C14.7,4.9,9.1,7,1.8,7C0.9,7,0.1,7.7,0.1,8.7c0,1.2,0,2.4,0,3.7c-0.2,12.1-0.6,28.6,19.9,35.5c0.2,0.1,0.4,0.1,0.6,0.1
			c0.2,0,0.4,0,0.6-0.1C41.5,40.9,41.2,24.4,40.9,12.4z M20.5,44.5C3,38.3,3.2,24.5,3.5,12.4c0-0.7,0-1.4,0-2.1
			C10.3,10,15.8,8,20.5,4c4.7,4,10.2,6.1,17,6.3c0,0.7,0,1.4,0,2.1C37.8,24.5,38,38.3,20.5,44.5z M26.4,18.2l-8.2,8.1l-3.5-3.5
			c-0.7-0.7-1.7-0.7-2.4,0c-0.7,0.7-0.7,1.7,0,2.4l4.7,4.6c0.3,0.3,0.8,0.5,1.2,0.5s0.9-0.2,1.2-0.5l9.5-9.3c0.7-0.7,0.7-1.7,0-2.4
			C28.1,17.5,27,17.5,26.4,18.2z"/>
	</g>
</g>
</svg>
