<?xml version="1.0" encoding="utf-8"?>
<!-- Generator: Adobe Illustrator 22.1.0, SVG Export Plug-In . SVG Version: 6.00 Build 0)  -->
<svg version="1.1" id="Shape_682_1_" xmlns="http://www.w3.org/2000/svg" xmlns:xlink="http://www.w3.org/1999/xlink" x="0px"
	 y="0px" viewBox="0 0 49 49" style="enable-background:new 0 0 49 49;" xml:space="preserve">
<style type="text/css">
	.st0{fill-rule:evenodd;clip-rule:evenodd;fill:#333333;}
</style>
<g id="Shape_682">
	<g>
		<path class="st0" d="M38.7,0H10.3C4.6,0,0,4.6,0,10.3v22.6v2.4v3.4C0,44.4,4.6,49,10.3,49h28.4C44.4,49,49,44.4,49,38.7V10.3
			C49,4.6,44.4,0,38.7,0z M10.3,3.4h28.4c3.3,0,6,2.3,6.7,5.4H3.6C4.3,5.8,7,3.4,10.3,3.4z M45.6,38.7c0,3.8-3.1,6.9-6.9,6.9H10.3
			c-3.8,0-6.9-3.1-6.9-6.9v-3.4v-2.4V12.4h42.1V38.7z M15.1,38c5.2,0,9.4-4.2,9.4-9.4c0-5.2-4.2-9.4-9.4-9.4c-5.2,0-9.4,4.2-9.4,9.4
			C5.7,33.8,9.9,38,15.1,38z M15.1,22.3c3.5,0,6.3,2.8,6.3,6.3c0,3.5-2.8,6.3-6.3,6.3c-3.5,0-6.3-2.8-6.3-6.3
			C8.8,25.1,11.6,22.3,15.1,22.3z M28,34.6h13.1c1,0,1.8-0.8,1.8-1.8S42.1,31,41.1,31H28c-1,0-1.8,0.8-1.8,1.8S27,34.6,28,34.6z
			 M28,26.2h7.8c1,0,1.8-0.8,1.8-1.8c0-1-0.8-1.8-1.8-1.8H28c-1,0-1.8,0.8-1.8,1.8C26.2,25.4,27,26.2,28,26.2z"/>
	</g>
</g>
</svg>
