<?xml version="1.0" encoding="utf-8"?>
<!-- Generator: Adobe Illustrator 22.1.0, SVG Export Plug-In . SVG Version: 6.00 Build 0)  -->
<svg version="1.1" id="Shape_683_1_" xmlns="http://www.w3.org/2000/svg" xmlns:xlink="http://www.w3.org/1999/xlink" x="0px"
	 y="0px" viewBox="0 0 45 50" style="enable-background:new 0 0 45 50;" xml:space="preserve">
<style type="text/css">
	.st0{fill-rule:evenodd;clip-rule:evenodd;fill:#333333;}
</style>
<g id="Shape_683">
	<g>
		<path class="st0" d="M42.8,6.8l-4.1-4.1c-1.4-1.4-3.4-2.2-5.4-2.2H15.9c-3.1,0-5.6,2.5-5.6,5.6v27.6c0,3.1,2.5,5.6,5.6,5.6h23.5
			c3.1,0,5.6-2.5,5.6-5.6V12.2C45,10.1,44.2,8.2,42.8,6.8z M41.9,33.6c0,1.4-1.1,2.6-2.6,2.6H15.9c-1.4,0-2.6-1.1-2.6-2.6V6.1
			c0-1.4,1.1-2.6,2.6-2.6h17.4c1.2,0,2.4,0.5,3.3,1.3l4.1,4.1c0.9,0.9,1.3,2,1.3,3.2V33.6z M34.3,41.3c-0.8,0-1.5,0.7-1.5,1.5v1
			c0,1.4-1.1,2.6-2.6,2.6H5.6c-1.4,0-2.6-1.1-2.6-2.6V11.2c0-1.4,1.1-2.6,2.6-2.6h1c0.8,0,1.5-0.7,1.5-1.5c0-0.8-0.7-1.5-1.5-1.5h-1
			C2.5,5.6,0,8.1,0,11.2v32.7c0,3.1,2.5,5.6,5.6,5.6h24.5c3.1,0,5.6-2.5,5.6-5.6v-1C35.8,42,35.1,41.3,34.3,41.3z M35.3,14.7H19.9
			c-0.8,0-1.5,0.7-1.5,1.5c0,0.8,0.7,1.5,1.5,1.5h15.3c0.8,0,1.5-0.7,1.5-1.5C36.8,15.4,36.1,14.7,35.3,14.7z M35.3,20.9H19.9
			c-0.8,0-1.5,0.7-1.5,1.5c0,0.8,0.7,1.5,1.5,1.5h15.3c0.8,0,1.5-0.7,1.5-1.5C36.8,21.6,36.1,20.9,35.3,20.9z M35.3,27H19.9
			c-0.8,0-1.5,0.7-1.5,1.5c0,0.8,0.7,1.5,1.5,1.5h15.3c0.8,0,1.5-0.7,1.5-1.5C36.8,27.7,36.1,27,35.3,27z"/>
	</g>
</g>
</svg>
