<svg height="463pt" viewBox="-15 0 463 463.152" width="463pt" xmlns="http://www.w3.org/2000/svg"><path d="m8.074219 115.574219h416v240h-416zm0 0" fill="#6fb944"/><path d="m96.074219 323.574219c0-30.925781-25.070313-56-56-56v-64c30.929687 0 56-25.070313 56-56h240c0 30.929687 25.074219 56 56 56v64c-30.925781 0-56 25.074219-56 56zm0 0" fill="#2d8e43"/><path d="m216.074219 291.574219c-30.925781 0-56-25.070313-56-56 0-30.925781 25.074219-56 56-56 30.929687 0 56 25.074219 56 56-.035157 30.914062-25.085938 55.964843-56 56zm0 0" fill="#6fb944"/><g fill="#2d8e43"><path d="m48.074219 171.574219h-16v-24c0-4.417969 3.582031-8 8-8h24v16h-16zm0 0"/><path d="m64.074219 331.574219h-24c-4.417969 0-8-3.578125-8-8v-24h16v16h16zm0 0"/><path d="m400.074219 171.574219h-16v-16h-16v-16h24c4.421875 0 8 3.582031 8 8zm0 0"/><path d="m392.074219 331.574219h-24v-16h16v-16h16v24c0 4.421875-3.578125 8-8 8zm0 0"/><path d="m319.277344 48-24-48-14.320313 7.152344 13.597657 27.199218c-61.078126-23.851562-129.6875-18.65625-186.480469 14.128907l8 13.839843c54.410156-31.375 120.398437-35.367187 178.195312-10.785156l-33.769531 16.878906 7.152344 14.320313 48-24c1.90625-.9375 3.359375-2.601563 4.039062-4.613281.679688-2.015625.53125-4.21875-.414062-6.121094zm0 0"/><path d="m208.074219 427.574219c-26.867188-.03125-53.457031-5.457031-78.191407-15.957031l33.769532-16.882813-7.152344-14.320313-48 24c-3.957031 1.976563-5.5625 6.785157-3.585938 10.738282l24 48 14.320313-7.152344-13.597656-27.199219c61.066406 23.839844 129.660156 18.640625 186.4375-14.128906l-8-13.839844c-30.402344 17.546875-64.894531 26.769531-100 26.742188zm0 0"/></g><path d="m216.074219 179.574219c-30.925781 0-56 25.074219-56 56 0 30.929687 25.074219 56 56 56 30.929687 0 56-25.070313 56-56-.035157-30.910157-25.085938-55.964844-56-56zm0 96c-22.089844 0-40-17.90625-40-40 0-22.089844 17.910156-40 40-40 22.09375 0 40 17.910156 40 40-.023438 22.082031-17.917969 39.976562-40 40zm0 0"/><path d="m48.074219 155.574219h16v-16h-24c-4.417969 0-8 3.582031-8 8v24h16zm0 0"/><path d="m48.074219 299.574219h-16v24c0 4.421875 3.582031 8 8 8h24v-16h-16zm0 0"/><path d="m.0742188 115.574219v240c0 4.421875 3.5820312 8 8.0000002 8h416c4.421875 0 8-3.578125 8-8v-240c0-4.417969-3.578125-8-8-8h-416c-4.417969 0-8.0000002 3.582031-8.0000002 8zm16.0000002 8h400v224h-400zm0 0"/><path d="m392.074219 195.574219c-26.496094-.023438-47.972657-21.5-48-48 0-4.417969-3.578125-8-8-8h-240c-4.417969 0-8 3.582031-8 8-.023438 26.5-21.5 47.976562-48 48-4.417969 0-8 3.582031-8 8v64c0 4.421875 3.582031 8 8 8 26.5.027343 47.976562 21.503906 48 48 0 4.421875 3.582031 8 8 8h240c4.421875 0 8-3.578125 8-8 .027343-26.496094 21.503906-47.972657 48-48 4.421875 0 8-3.578125 8-8v-64c0-4.417969-3.578125-8-8-8zm-8 64.496093c-28.980469 3.703126-51.800781 26.523438-55.503907 55.503907h-224.992187c-3.703125-28.980469-26.519531-51.800781-55.503906-55.503907v-48.992187c28.984375-3.703125 51.800781-26.519531 55.503906-55.503906h224.992187c3.703126 28.984375 26.523438 51.800781 55.503907 55.503906zm0 0"/><path d="m392.074219 139.574219h-24v16h16v16h16v-24c0-4.417969-3.578125-8-8-8zm0 0"/><path d="m384.074219 315.574219h-16v16h24c4.421875 0 8-3.578125 8-8v-24h-16zm0 0"/><path d="m108.074219 48.480469 8 13.839843c54.410156-31.375 120.398437-35.367187 178.195312-10.785156l-33.769531 16.878906 7.152344 14.320313 48-24c1.90625-.9375 3.359375-2.601563 4.039062-4.613281.679688-2.015625.53125-4.21875-.414062-6.121094l-24-48-14.320313 7.152344 13.597657 27.199218c-61.078126-23.851562-129.6875-18.65625-186.480469 14.128907zm0 0"/><path d="m316.074219 414.671875-8-13.839844c-54.40625 31.371094-120.390625 35.367188-178.183594 10.785157l33.769531-16.882813-7.152344-14.320313-48 24c-3.957031 1.976563-5.5625 6.785157-3.582031 10.738282l24 48 14.316407-7.152344-13.597657-27.199219c61.066407 23.835938 129.65625 18.640625 186.429688-14.128906zm0 0"/></svg>