<?xml version="1.0" encoding="utf-8"?>
<!-- Generator: Adobe Illustrator 22.1.0, SVG Export Plug-In . SVG Version: 6.00 Build 0)  -->
<svg version="1.1" id="Shape_672_1_" xmlns="http://www.w3.org/2000/svg" xmlns:xlink="http://www.w3.org/1999/xlink" x="0px"
	 y="0px" viewBox="0 0 60 55" style="enable-background:new 0 0 60 55;" xml:space="preserve">
<style type="text/css">
	.st0{fill-rule:evenodd;clip-rule:evenodd;fill:#333333;}
</style>
<g id="Shape_672">
	<g>
		<path class="st0" d="M31.1,10.8c-0.8,0-1.5,0.7-1.5,1.5v19.6l12.4,6c0.2,0.1,0.4,0.2,0.7,0.2c0.6,0,1.1-0.3,1.4-0.8
			c0.2-0.4,0.2-0.8,0.1-1.2c-0.1-0.4-0.4-0.7-0.8-0.9l-10.7-5.2V12.3C32.7,11.5,32,10.8,31.1,10.8z M51.9,8.1
			C46.8,2.9,39.8,0,32.5,0C25.1,0,18.2,2.9,13,8.1C7.8,13.3,5,20.2,5,27.5v0.3l-2.4-2.4c-0.6-0.6-1.5-0.6-2.1,0
			c-0.6,0.6-0.6,1.5,0,2.1l5,5C6,33,6.9,33,7.5,32.4l5-5c0.6-0.6,0.6-1.5,0-2.1c-0.3-0.3-0.7-0.4-1-0.4c-0.4,0-0.8,0.1-1,0.4
			l-2.4,2.4v-0.3C7.9,14,18.9,3,32.5,3C46,3,57,14,57,27.5C57,41,46,52,32.5,52c-6.7,0-12.9-2.6-17.6-7.4c-0.6-0.6-1.5-0.6-2.1,0
			c-0.6,0.6-0.6,1.5,0,2.1C18,52.1,25,55,32.5,55c7.3,0,14.3-2.9,19.5-8.1c5.2-5.2,8.1-12.1,8.1-19.4C60,20.2,57.1,13.3,51.9,8.1z"
			/>
	</g>
</g>
</svg>
