<?xml version="1.0" encoding="utf-8"?>
<!-- Generator: Adobe Illustrator 17.0.0, SVG Export Plug-In . SVG Version: 6.00 Build 0)  -->
<!DOCTYPE svg PUBLIC "-//W3C//DTD SVG 1.1//EN" "http://www.w3.org/Graphics/SVG/1.1/DTD/svg11.dtd">
<svg version="1.1" id="Layer_1" xmlns="http://www.w3.org/2000/svg" xmlns:xlink="http://www.w3.org/1999/xlink" x="0px" y="0px"
	 width="409.866px" height="608.932px" viewBox="756.201 920.406 409.866 608.932"
	 enable-background="new 756.201 920.406 409.866 608.932" xml:space="preserve">
<g>
	<circle fill="#2AB354" cx="961.134" cy="998.475" r="78.069"/>
	<path fill="#FFFFFF" d="M970.892,1027.75h-19.517c-5.377,0-9.76-4.382-9.76-9.76h-19.517c0,16.141,13.134,29.277,29.277,29.277
		v9.76h19.517v-9.76c16.141,0,29.277-13.134,29.277-29.277c0-16.143-13.134-29.277-29.277-29.277h-19.517
		c-5.377,0-9.76-4.382-9.76-9.76s4.382-9.756,9.76-9.756h19.517c5.377,0,9.76,4.382,9.76,9.76h19.517
		c0-16.141-13.134-29.277-29.277-29.277v-9.76h-19.517v9.76c-16.141,0-29.277,13.134-29.277,29.277s13.134,29.277,29.277,29.277
		h19.517c5.377,0,9.76,4.382,9.76,9.76C980.651,1023.372,976.269,1027.75,970.892,1027.75z"/>
</g>
<g>
	<path fill="#334468" d="M1117.273,1148.75h-97.587v19.517h97.587c16.141,0,29.277,13.134,29.277,29.277v39.289
		c-8.177-6.198-18.25-10.012-29.277-10.012H804.995c-16.141,0-29.277-13.134-29.277-29.277s13.136-29.277,29.277-29.277h107.346
		v-19.517H804.995c-26.904,0-48.794,21.889-48.794,48.794v283c0,26.904,21.889,48.794,48.794,48.794h312.278
		c26.904,0,48.794-21.889,48.794-48.794v-29.277v-136.621v-39.035v-78.069C1166.065,1170.638,1144.176,1148.75,1117.273,1148.75z
		 M1146.548,1431.752h-117.104c-26.904,0-48.794-21.889-48.794-48.794c0-26.906,21.889-48.794,48.794-48.794h117.104V1431.752z
		 M1146.548,1314.648h-117.104c-37.669,0-68.312,30.651-68.312,68.312s30.643,68.312,68.312,68.312h117.104v29.273
		c0,16.141-13.134,29.277-29.277,29.277H804.993c-16.141,0-29.277-13.134-29.277-29.277v-243.987
		c8.159,6.137,18.297,9.778,29.277,9.778h312.278c16.141,0,29.277,13.134,29.277,29.277V1314.648z"/>
	<rect x="804.995" y="1187.784" fill="#334468" width="312.277" height="19.517"/>
	<path fill="#334468" d="M1000.169,1382.958c0,16.141,13.134,29.277,29.277,29.277c16.143,0,29.277-13.134,29.277-29.277
		s-13.134-29.277-29.277-29.277C1013.303,1353.681,1000.169,1366.817,1000.169,1382.958z M1039.203,1382.958
		c0,5.386-4.382,9.76-9.76,9.76c-5.378,0-9.76-4.372-9.76-9.76s4.382-9.76,9.76-9.76
		C1034.821,1373.198,1039.203,1377.572,1039.203,1382.958z"/>
	<rect x="951.374" y="1106.336" fill="#334468" width="19.517" height="78.069"/>
	<rect x="1019.686" y="1077.059" fill="#334468" width="19.517" height="78.069"/>
	<rect x="883.065" y="1077.059" fill="#334468" width="19.517" height="58.552"/>
</g>
</svg>
