<?xml version="1.0" encoding="utf-8"?>
<!-- Generator: Adobe Illustrator 17.0.0, SVG Export Plug-In . SVG Version: 6.00 Build 0)  -->
<!DOCTYPE svg PUBLIC "-//W3C//DTD SVG 1.1//EN" "http://www.w3.org/Graphics/SVG/1.1/DTD/svg11.dtd">
<svg version="1.1" id="Layer_1" xmlns="http://www.w3.org/2000/svg" xmlns:xlink="http://www.w3.org/1999/xlink" x="0px" y="0px"
	 width="1164.008px" height="380.588px" viewBox="1432.021 1152.814 1164.008 380.588"
	 enable-background="new 1432.021 1152.814 1164.008 380.588" xml:space="preserve">
<g>
	<path fill="#334468" d="M1793.092,1152.814h-97.587v19.517h97.587c16.14,0,29.277,13.134,29.277,29.277v39.289
		c-8.177-6.198-18.25-10.012-29.277-10.012h-312.277c-16.141,0-29.277-13.134-29.277-29.277s13.136-29.277,29.277-29.277h224.45
		v-19.517h-224.45c-26.904,0-48.794,21.889-48.794,48.794v283c0,26.904,21.889,48.794,48.794,48.794h312.278
		c26.904,0,48.794-21.889,48.794-48.794v-29.277v-136.62v-39.035v-78.069C1841.885,1174.703,1819.996,1152.814,1793.092,1152.814z
		 M1822.367,1435.817h-117.104c-26.904,0-48.794-21.889-48.794-48.794c0-26.906,21.888-48.794,48.794-48.794h117.104V1435.817z
		 M1822.367,1318.713h-117.104c-37.669,0-68.312,30.651-68.312,68.312s30.643,68.312,68.312,68.312h117.104v29.273
		c0,16.141-13.135,29.277-29.277,29.277h-312.277c-16.141,0-29.277-13.134-29.277-29.277v-243.988
		c8.159,6.137,18.297,9.778,29.277,9.778h312.277c16.141,0,29.277,13.134,29.277,29.277V1318.713z"/>
	<rect x="1480.815" y="1190.976" fill="#334468" width="312.277" height="19.517"/>
	<path fill="#334468" d="M1675.988,1382.143c0,16.141,13.135,29.277,29.277,29.277c16.143,0,29.277-13.134,29.277-29.277
		s-13.134-29.277-29.277-29.277C1689.123,1352.866,1675.988,1366.003,1675.988,1382.143z M1715.023,1382.143
		c0,5.386-4.382,9.76-9.76,9.76s-9.76-4.372-9.76-9.76c0-5.388,4.382-9.76,9.76-9.76S1715.023,1376.758,1715.023,1382.143z"/>
</g>
<g>
	<path fill="#334468" d="M2547.235,1152.814h-97.587v19.517h97.587c16.14,0,29.277,13.134,29.277,29.277v39.289
		c-8.177-6.198-18.25-10.012-29.277-10.012h-312.278c-16.141,0-29.277-13.134-29.277-29.277s13.136-29.277,29.277-29.277h223.998
		v-19.517h-223.998c-26.904,0-48.794,21.889-48.794,48.794v283c0,26.904,21.889,48.794,48.794,48.794h312.278
		c26.904,0,48.794-21.889,48.794-48.794v-29.277v-136.62v-39.035v-78.069C2596.027,1174.703,2574.138,1152.814,2547.235,1152.814z
		 M2576.51,1435.817h-117.104c-26.904,0-48.794-21.889-48.794-48.794c0-26.906,21.888-48.794,48.794-48.794h117.104V1435.817z
		 M2576.51,1318.713h-117.104c-37.669,0-68.312,30.651-68.312,68.312s30.643,68.312,68.312,68.312h117.104v29.273
		c0,16.141-13.135,29.277-29.277,29.277h-312.278c-16.14,0-29.277-13.134-29.277-29.277v-243.988
		c8.159,6.137,18.297,9.778,29.277,9.778h312.278c16.141,0,29.277,13.134,29.277,29.277V1318.713z"/>
	<rect x="2234.957" y="1190.976" fill="#334468" width="312.277" height="19.517"/>
	<path fill="#334468" d="M2430.13,1382.143c0,16.141,13.135,29.277,29.277,29.277c16.143,0,29.277-13.134,29.277-29.277
		s-13.134-29.277-29.277-29.277C2443.265,1352.866,2430.13,1366.003,2430.13,1382.143z M2469.165,1382.143
		c0,5.386-4.382,9.76-9.76,9.76s-9.76-4.372-9.76-9.76c0-5.388,4.382-9.76,9.76-9.76S2469.165,1376.758,2469.165,1382.143z"/>
</g>
<g>
	<circle fill="#2AB354" cx="2070.786" cy="1343.109" r="78.069"/>
	<path fill="#FFFFFF" d="M2080.544,1372.384h-19.517c-5.377,0-9.76-4.382-9.76-9.76h-19.517c0,16.141,13.134,29.277,29.277,29.277
		v9.76h19.517v-9.76c16.14,0,29.277-13.134,29.277-29.277s-13.134-29.277-29.277-29.277h-19.517c-5.377,0-9.76-4.382-9.76-9.76
		c0-5.377,4.382-9.756,9.76-9.756h19.517c5.377,0,9.76,4.382,9.76,9.76h19.517c0-16.141-13.134-29.277-29.277-29.277v-9.76h-19.517
		v9.76c-16.141,0-29.277,13.134-29.277,29.277s13.134,29.277,29.277,29.277h19.517c5.377,0,9.76,4.382,9.76,9.76
		C2090.304,1368.006,2085.921,1372.384,2080.544,1372.384z"/>
</g>
<g>
	<rect x="1885.464" y="1333.349" fill="#334468" width="78.069" height="19.517"/>
	<rect x="1914.741" y="1401.661" fill="#334468" width="78.069" height="19.517"/>
	<rect x="1934.258" y="1265.039" fill="#334468" width="58.552" height="19.517"/>
</g>
</svg>
