<?xml version="1.0" encoding="utf-8"?>
<!-- Generator: Adobe Illustrator 22.1.0, SVG Export Plug-In . SVG Version: 6.00 Build 0)  -->
<svg version="1.1" id="Shape_667_1_" xmlns="http://www.w3.org/2000/svg" xmlns:xlink="http://www.w3.org/1999/xlink" x="0px"
	 y="0px" viewBox="0 0 60 53" style="enable-background:new 0 0 60 53;" xml:space="preserve">
<style type="text/css">
	.st0{fill-rule:evenodd;clip-rule:evenodd;fill:#333333;}
</style>
<g id="Shape_667">
	<g>
		<path class="st0" d="M56.6,23.6h-1.4v-8.7c0-3.5-2.9-6.4-6.3-6.4h-1.3l0-3.2c0-2.4-1.9-4.3-4.3-4.3H5.2C2.4,1,0,3.3,0,6.1v42.5
			C0,51,1.9,53,4.3,53h44.6c3.5,0,6.3-2.9,6.3-6.4v-8.7h1.4c1.8,0,3.3-1.5,3.3-3.4V27C60,25.1,58.5,23.6,56.6,23.6z M5.2,4h38.1
			c0.7,0,1.3,0.6,1.3,1.3l0,3.2H5.2c-1.2,0-2.3-1-2.3-2.3C2.9,5,4,4,5.2,4z M52.3,46.5c0,1.9-1.5,3.4-3.4,3.4H4.3
			c-0.7,0-1.3-0.6-1.3-1.3V11c0.7,0.3,1.5,0.5,2.3,0.5h43.7c1.9,0,3.4,1.5,3.4,3.4v8.7H42.2c-1.8,0-3.3,1.5-3.3,3.4v7.5
			c0,1.9,1.5,3.4,3.3,3.4h10.1V46.5z M57,34.5c0,0.2-0.2,0.4-0.4,0.4H42.2c-0.2,0-0.4-0.2-0.4-0.4V27c0-0.2,0.2-0.4,0.4-0.4h14.4
			c0.2,0,0.4,0.2,0.4,0.4V34.5z"/>
	</g>
</g>
</svg>
