<?xml version="1.0" encoding="utf-8"?>
<!-- Generator: Adobe Illustrator 17.0.0, SVG Export Plug-In . SVG Version: 6.00 Build 0)  -->
<!DOCTYPE svg PUBLIC "-//W3C//DTD SVG 1.1//EN" "http://www.w3.org/Graphics/SVG/1.1/DTD/svg11.dtd">
<svg version="1.1" id="Layer_1" xmlns="http://www.w3.org/2000/svg" xmlns:xlink="http://www.w3.org/1999/xlink" x="0px" y="0px"
	 width="409.865px" height="595.279px" viewBox="181.465 929.991 409.865 595.279"
	 enable-background="new 181.465 929.991 409.865 595.279" xml:space="preserve">
<g>
	<g>
		<path fill="#334468" d="M542.536,1144.682H444.95v19.517h97.587c16.141,0,29.277,13.134,29.277,29.277v39.289
			c-8.177-6.198-18.25-10.012-29.277-10.012H230.259c-16.141,0-29.277-13.134-29.277-29.277s13.136-29.277,29.277-29.277h107.346
			v-19.517H230.259c-26.904,0-48.794,21.889-48.794,48.794v283c0,26.904,21.889,48.794,48.794,48.794h312.277
			c26.904,0,48.794-21.889,48.794-48.794v-29.277v-136.621v-39.035v-78.069C591.329,1166.57,569.44,1144.682,542.536,1144.682z
			 M571.811,1427.684H454.707c-26.904,0-48.794-21.889-48.794-48.794c0-26.906,21.889-48.794,48.794-48.794h117.104V1427.684z
			 M571.811,1310.58H454.707c-37.669,0-68.312,30.651-68.312,68.312s30.643,68.312,68.312,68.312h117.104v29.273
			c0,16.141-13.134,29.277-29.277,29.277H230.257c-16.141,0-29.277-13.134-29.277-29.277V1232.49
			c8.159,6.137,18.297,9.778,29.277,9.778h312.277c16.141,0,29.277,13.134,29.277,29.277L571.811,1310.58L571.811,1310.58z"/>
		<rect x="230.259" y="1183.716" fill="#334468" width="312.277" height="19.517"/>
		<path fill="#334468" d="M425.432,1378.89c0,16.141,13.134,29.277,29.277,29.277s29.277-13.134,29.277-29.277
			s-13.134-29.277-29.277-29.277C438.567,1349.613,425.432,1362.749,425.432,1378.89z M464.467,1378.89
			c0,5.386-4.382,9.76-9.76,9.76c-5.378,0-9.76-4.372-9.76-9.76s4.382-9.76,9.76-9.76
			C460.085,1369.13,464.467,1373.504,464.467,1378.89z"/>
		<rect x="376.638" y="929.991" fill="#334468" width="19.517" height="78.069"/>
		<rect x="444.95" y="959.268" fill="#334468" width="19.517" height="78.069"/>
		<rect x="308.328" y="978.785" fill="#334468" width="19.517" height="58.552"/>
	</g>
</g>
<g>
	<circle fill="#2AB354" cx="386.398" cy="1115.407" r="78.069"/>
	<path fill="#FFFFFF" d="M396.155,1144.682h-19.517c-5.377,0-9.76-4.382-9.76-9.76h-19.517c0,16.141,13.134,29.277,29.277,29.277
		v9.76h19.517v-9.76c16.141,0,29.277-13.134,29.277-29.277s-13.134-29.277-29.277-29.277h-19.517c-5.377,0-9.76-4.382-9.76-9.76
		c0-5.377,4.382-9.756,9.76-9.756h19.517c5.377,0,9.76,4.382,9.76,9.76h19.517c0-16.141-13.134-29.277-29.277-29.277v-9.76h-19.517
		v9.76c-16.141,0-29.277,13.134-29.277,29.277s13.134,29.277,29.277,29.277h19.517c5.377,0,9.76,4.382,9.76,9.76
		C405.915,1140.303,401.533,1144.682,396.155,1144.682z"/>
</g>
</svg>
