<?xml version="1.0" encoding="utf-8"?>
<!-- Generator: Adobe Illustrator 22.1.0, SVG Export Plug-In . SVG Version: 6.00 Build 0)  -->
<svg version="1.1" id="Shape_669_1_" xmlns="http://www.w3.org/2000/svg" xmlns:xlink="http://www.w3.org/1999/xlink" x="0px"
	 y="0px" viewBox="0 0 64 60" style="enable-background:new 0 0 64 60;" xml:space="preserve">
<style type="text/css">
	.st0{fill-rule:evenodd;clip-rule:evenodd;fill:#3F3F3F;}
</style>
<g id="Shape_669">
	<g>
		<path class="st0" d="M32.1,36.4c4.8,0,9.4-1.9,12.8-5.3c3.4-3.4,5.3-8,5.3-12.9c0-4.9-1.9-9.4-5.3-12.9C41.4,1.9,36.9,0,32.1,0
			c-4.8,0-9.4,1.9-12.8,5.3c-3.4,3.4-5.3,8-5.3,12.9c0,4.9,1.9,9.4,5.3,12.9C22.7,34.5,27.2,36.4,32.1,36.4z M32.1,2.7
			c8.5,0,15.4,6.9,15.4,15.5c0,8.5-6.9,15.5-15.4,15.5s-15.4-6.9-15.4-15.5C16.7,9.7,23.6,2.7,32.1,2.7z M30.7,19.3h3.1
			c1.1,0,2.1,0.9,2.1,2.1c0,1.1-0.9,2.1-2.1,2.1h-5.6c-0.7,0-1.4,0.6-1.4,1.4c0,0.8,0.6,1.4,1.4,1.4h2.7v2c0,0.8,0.6,1.4,1.4,1.4
			c0.7,0,1.4-0.6,1.4-1.4v-2h0.3c2.6,0,4.7-2.2,4.7-4.8c0-2.6-2.1-4.8-4.8-4.8h-3.1c-1.1,0-2.1-0.9-2.1-2.1c0-1.1,0.9-2.1,2.1-2.1
			h5.5c0.7,0,1.4-0.6,1.4-1.4c0-0.8-0.6-1.4-1.4-1.4h-2.6V7.8c0-0.8-0.6-1.4-1.4-1.4c-0.7,0-1.4,0.6-1.4,1.4v1.9h-0.2
			c-2.6,0-4.8,2.2-4.8,4.8S28,19.3,30.7,19.3z M63.8,42.8c-1.6-2.9-5.2-4-8.2-2.5l-9,4.3c-1.3-2.3-3.8-3.8-6.5-3.9l-8.5-0.2
			c-1.3,0-2.6-0.4-3.8-1L26.8,39c-4.4-2.3-9.6-2.4-14.1-0.2l0-1.6c0-0.4-0.1-0.7-0.4-1c-0.3-0.3-0.6-0.4-1-0.4L2,35.5
			c-0.4,0-0.7,0.1-1,0.4c-0.3,0.3-0.4,0.6-0.4,1L0,57.6c0,0.4,0.1,0.8,0.4,1c0.3,0.3,0.6,0.4,1,0.4l9.4,0.3c0.8,0,1.4-0.6,1.4-1.4
			l0-0.8l2.3-1.2c0.9-0.5,1.9-0.6,2.9-0.3L32,59.6c0,0,0.1,0,0.1,0c1.1,0.2,2.1,0.3,3.2,0.3h0c2.3,0,4.6-0.5,6.7-1.5
			c0.1,0,0.1-0.1,0.2-0.1l21.1-13.7C64,44.3,64.2,43.4,63.8,42.8z M9.4,56.4l-6.5-0.2l0.5-17.8l6.5,0.2L9.4,56.4z M40.8,55.9
			c-2.5,1.1-5.3,1.5-8,0.9l-14.5-4.1c-0.6-0.2-1.2-0.3-1.9-0.3c-1.1,0-2.2,0.3-3.2,0.8l-0.9,0.5l0.3-11.6c3.9-2.5,8.8-2.8,12.8-0.6
			l0.9,0.5c1.5,0.8,3.3,1.3,5,1.3l8.6,0.2c2.2,0.1,4,1.5,4.6,3.6l-12.4-0.3h0c-0.8,0-1.4,0.6-1.4,1.4c0,0.8,0.6,1.5,1.4,1.5
			l14.1,0.4c0.8,0,1.4-0.6,1.4-1.4c0-0.5,0-0.9-0.1-1.4l9.4-4.5c1.1-0.6,2.5-0.4,3.6,0.3L40.8,55.9z"/>
	</g>
</g>
</svg>
